<svg width="408" height="62" viewBox="0 0 408 62" fill="none" xmlns="http://www.w3.org/2000/svg">
<path d="M0 0H408V62H0V0Z" fill="#4600D8"/>
<path fill-rule="evenodd" clip-rule="evenodd" d="M87.2 19C87.2 18.5582 87.5581 18.2 88 18.2H112C112.442 18.2 112.8 18.5582 112.8 19V43C112.8 43.4418 112.442 43.8 112 43.8H88C87.5581 43.8 87.2 43.4418 87.2 43V19ZM89.2 20.2V41.8H110.8V20.2H89.2Z" fill="white"/>
<path fill-rule="evenodd" clip-rule="evenodd" d="M100.6 22.6C100.821 22.6 101 22.7791 101 23V39C101 39.2209 100.821 39.4 100.6 39.4H99.4C99.179 39.4 99 39.2209 99 39V23C99 22.7791 99.179 22.6 99.4 22.6H100.6ZM94.4 28.2C94.6209 28.2 94.8 28.3791 94.8 28.6V39C94.8 39.2209 94.6209 39.4 94.4 39.4H93.2C92.979 39.4 92.8 39.2209 92.8 39V28.6C92.8 28.3791 92.979 28.2 93.2 28.2H94.4ZM106.8 32.2C107.021 32.2 107.2 32.3791 107.2 32.6V39C107.2 39.2209 107.021 39.4 106.8 39.4H105.6C105.379 39.4 105.2 39.2209 105.2 39V32.6C105.2 32.3791 105.379 32.2 105.6 32.2H106.8Z" fill="white"/>
<path d="M129.976 39C129.56 39 129.208 38.872 128.92 38.616C128.648 38.36 128.512 38.04 128.512 37.656V23.52C128.512 23.152 128.648 22.84 128.92 22.584C129.208 22.328 129.56 22.2 129.976 22.2H135.4C136.792 22.2 138.024 22.464 139.096 22.992C140.184 23.52 141.024 24.264 141.616 25.224C142.208 26.184 142.504 27.288 142.504 28.536V32.592C142.504 33.84 142.2 34.952 141.592 35.928C141 36.888 140.16 37.64 139.072 38.184C138 38.728 136.776 39 135.4 39H129.976ZM135.16 36.504C136.584 36.504 137.68 36.168 138.448 35.496C139.232 34.824 139.624 33.872 139.624 32.64V28.512C139.624 27.28 139.24 26.336 138.472 25.68C137.704 25.024 136.6 24.696 135.16 24.696H131.392V36.504H135.16ZM145.772 39.216C145.148 39.136 144.66 38.912 144.308 38.544C143.956 38.16 143.78 37.696 143.78 37.152C143.78 36.72 143.884 36.288 144.092 35.856L149.66 22.92C149.932 22.296 150.404 21.984 151.076 21.984C151.732 21.984 152.204 22.296 152.492 22.92L158.06 35.856C158.252 36.304 158.348 36.728 158.348 37.128C158.348 37.688 158.172 38.16 157.82 38.544C157.468 38.912 156.98 39.136 156.356 39.216L154.316 34.512H147.812L145.772 39.216ZM153.428 32.016L150.644 25.032L150.38 25.128L150.932 26.496L148.7 32.016H153.428ZM166.63 39.216C165.222 39.216 163.998 39.032 162.958 38.664C161.918 38.296 161.118 37.792 160.558 37.152C160.014 36.512 159.742 35.776 159.742 34.944C159.742 33.648 160.558 33 162.19 33C162.222 34.264 162.622 35.224 163.39 35.88C164.174 36.536 165.27 36.864 166.678 36.864C167.91 36.864 168.862 36.656 169.534 36.24C170.206 35.824 170.542 35.224 170.542 34.44C170.542 33.944 170.414 33.544 170.158 33.24C169.902 32.92 169.47 32.64 168.862 32.4C168.254 32.144 167.374 31.888 166.222 31.632C164.686 31.296 163.47 30.904 162.574 30.456C161.694 30.008 161.054 29.472 160.654 28.848C160.254 28.224 160.054 27.448 160.054 26.52C160.054 25.624 160.318 24.832 160.846 24.144C161.374 23.456 162.118 22.928 163.078 22.56C164.038 22.176 165.15 21.984 166.414 21.984C167.614 21.984 168.694 22.152 169.654 22.488C170.614 22.808 171.366 23.264 171.91 23.856C172.454 24.448 172.726 25.128 172.726 25.896C172.726 27 171.95 27.576 170.398 27.624C170.27 26.472 169.886 25.632 169.246 25.104C168.622 24.576 167.678 24.312 166.414 24.312C165.294 24.312 164.43 24.504 163.822 24.888C163.214 25.272 162.91 25.816 162.91 26.52C162.91 27 163.022 27.4 163.246 27.72C163.486 28.024 163.878 28.296 164.422 28.536C164.966 28.76 165.75 28.984 166.774 29.208C168.406 29.576 169.702 29.992 170.662 30.456C171.622 30.904 172.31 31.448 172.726 32.088C173.158 32.712 173.374 33.496 173.374 34.44C173.374 35.416 173.094 36.264 172.534 36.984C171.99 37.704 171.206 38.256 170.182 38.64C169.174 39.024 167.99 39.216 166.63 39.216ZM175.856 24.192C175.856 23.472 176.096 22.928 176.576 22.56C177.072 22.176 177.792 21.984 178.736 21.984V29.28H186.368V24.192C186.368 23.472 186.616 22.928 187.112 22.56C187.608 22.176 188.328 21.984 189.272 21.984V37.008C189.272 37.712 189.024 38.256 188.528 38.64C188.032 39.024 187.312 39.216 186.368 39.216V31.8H178.736V37.008C178.736 37.728 178.488 38.28 177.992 38.664C177.512 39.032 176.8 39.216 175.856 39.216V24.192ZM193.726 39C193.326 39 192.982 38.872 192.694 38.616C192.406 38.344 192.262 38.024 192.262 37.656V23.52C192.262 23.152 192.398 22.84 192.67 22.584C192.958 22.328 193.31 22.2 193.726 22.2H200.23C201.734 22.2 202.926 22.624 203.806 23.472C204.702 24.32 205.15 25.456 205.15 26.88C205.15 27.584 204.958 28.256 204.574 28.896C204.206 29.52 203.71 30 203.086 30.336V30.408C203.95 30.68 204.622 31.152 205.102 31.824C205.598 32.48 205.846 33.24 205.846 34.104C205.846 35.064 205.63 35.92 205.198 36.672C204.766 37.408 204.166 37.984 203.398 38.4C202.63 38.8 201.75 39 200.758 39H193.726ZM200.182 29.376C200.758 29.376 201.246 29.144 201.646 28.68C202.062 28.216 202.27 27.648 202.27 26.976C202.27 26.256 202.086 25.688 201.718 25.272C201.35 24.856 200.838 24.648 200.182 24.648H195.094V29.376H200.182ZM200.662 36.528C201.382 36.528 201.942 36.32 202.342 35.904C202.758 35.472 202.966 34.888 202.966 34.152C202.966 33.4 202.766 32.824 202.366 32.424C201.966 32.008 201.398 31.8 200.662 31.8H195.094V36.528H200.662ZM214.54 39.216C213.228 39.216 212.028 38.952 210.94 38.424C209.868 37.896 209.02 37.184 208.396 36.288C207.772 35.392 207.46 34.408 207.46 33.336V27.84C207.46 26.768 207.764 25.784 208.372 24.888C208.996 23.992 209.844 23.288 210.916 22.776C212.004 22.248 213.212 21.984 214.54 21.984C215.868 21.984 217.068 22.248 218.14 22.776C219.228 23.288 220.076 23.992 220.684 24.888C221.308 25.784 221.62 26.768 221.62 27.84V33.336C221.62 34.408 221.308 35.392 220.684 36.288C220.06 37.184 219.204 37.896 218.116 38.424C217.044 38.952 215.852 39.216 214.54 39.216ZM214.54 36.696C215.82 36.696 216.836 36.384 217.588 35.76C218.356 35.136 218.74 34.312 218.74 33.288V27.888C218.74 26.864 218.356 26.048 217.588 25.44C216.836 24.816 215.82 24.504 214.54 24.504C213.26 24.504 212.236 24.816 211.468 25.44C210.716 26.048 210.34 26.864 210.34 27.888V33.288C210.34 34.312 210.716 35.136 211.468 35.76C212.236 36.384 213.26 36.696 214.54 36.696ZM224.686 39.216C224.062 39.136 223.574 38.912 223.222 38.544C222.87 38.16 222.694 37.696 222.694 37.152C222.694 36.72 222.798 36.288 223.006 35.856L228.574 22.92C228.846 22.296 229.318 21.984 229.99 21.984C230.646 21.984 231.118 22.296 231.406 22.92L236.974 35.856C237.166 36.304 237.262 36.728 237.262 37.128C237.262 37.688 237.086 38.16 236.734 38.544C236.382 38.912 235.894 39.136 235.27 39.216L233.23 34.512H226.726L224.686 39.216ZM232.342 32.016L229.558 25.032L229.294 25.128L229.846 26.496L227.614 32.016H232.342ZM239.77 23.52C239.77 23.152 239.906 22.84 240.178 22.584C240.466 22.328 240.818 22.2 241.234 22.2H247.69C249.354 22.2 250.658 22.656 251.602 23.568C252.562 24.48 253.042 25.736 253.042 27.336C253.042 28.28 252.842 29.08 252.442 29.736C252.042 30.376 251.442 30.888 250.642 31.272V31.368C251.346 31.672 251.882 32.128 252.25 32.736C252.618 33.328 252.802 34.064 252.802 34.944V37.008C252.802 37.728 252.554 38.28 252.058 38.664C251.578 39.032 250.866 39.216 249.922 39.216V35.064C249.922 33.336 249.186 32.472 247.714 32.472H242.626V37.008C242.626 37.728 242.378 38.28 241.882 38.664C241.402 39.032 240.698 39.216 239.77 39.216V23.52ZM247.57 30C248.37 30 248.994 29.768 249.442 29.304C249.906 28.824 250.138 28.16 250.138 27.312C250.138 25.552 249.282 24.672 247.57 24.672H242.626V30H247.57ZM257.265 39C256.849 39 256.497 38.872 256.209 38.616C255.937 38.36 255.801 38.04 255.801 37.656V23.52C255.801 23.152 255.937 22.84 256.209 22.584C256.497 22.328 256.849 22.2 257.265 22.2H262.689C264.081 22.2 265.313 22.464 266.385 22.992C267.473 23.52 268.313 24.264 268.905 25.224C269.497 26.184 269.793 27.288 269.793 28.536V32.592C269.793 33.84 269.489 34.952 268.881 35.928C268.289 36.888 267.449 37.64 266.361 38.184C265.289 38.728 264.065 39 262.689 39H257.265ZM262.449 36.504C263.873 36.504 264.969 36.168 265.737 35.496C266.521 34.824 266.913 33.872 266.913 32.64V28.512C266.913 27.28 266.529 26.336 265.761 25.68C264.993 25.024 263.889 24.696 262.449 24.696H258.681V36.504H262.449Z" fill="white"/>
</svg>
