<svg width="191" height="27" viewBox="0 0 191 27" fill="none" xmlns="http://www.w3.org/2000/svg">
<path fill-rule="evenodd" clip-rule="evenodd" d="M6.33755 17.7188H2.92505V21.2625H6.33755V17.7188ZM1.95005 16.0313C1.59106 16.0313 1.30005 16.3335 1.30005 16.7063V22.275C1.30005 22.6478 1.59106 22.95 1.95005 22.95H7.31255C7.67153 22.95 7.96255 22.6478 7.96255 22.275V16.7063C7.96255 16.3335 7.67153 16.0313 7.31255 16.0313H1.95005Z" fill="black"/>
<path fill-rule="evenodd" clip-rule="evenodd" d="M14.7063 17.7188H11.2938V21.2625H14.7063V17.7188ZM10.3188 16.0313C9.95981 16.0313 9.6688 16.3335 9.6688 16.7063V22.275C9.6688 22.6478 9.95981 22.95 10.3188 22.95H15.6813C16.0403 22.95 16.3313 22.6478 16.3313 22.275V16.7063C16.3313 16.3335 16.0403 16.0313 15.6813 16.0313H10.3188Z" fill="black"/>
<path fill-rule="evenodd" clip-rule="evenodd" d="M14.7063 5.7375H11.2938V9.28125H14.7063V5.7375ZM10.3188 4.05C9.95981 4.05 9.6688 4.35221 9.6688 4.725V10.2938C9.6688 10.6665 9.95981 10.9688 10.3188 10.9688H15.6813C16.0403 10.9688 16.3313 10.6665 16.3313 10.2938V4.725C16.3313 4.35221 16.0403 4.05 15.6813 4.05H10.3188Z" fill="black"/>
<path fill-rule="evenodd" clip-rule="evenodd" d="M12.1875 12.6563V10.9688H13.8125V12.6563H21.5313C21.8903 12.6563 22.1813 12.9585 22.1813 13.3313V16.0313H20.5563V14.3438H13.8125V16.0313H12.1875V14.3438H5.4438V16.0313H3.8188V13.3313C3.8188 12.9585 4.10981 12.6563 4.4688 12.6563H12.1875Z" fill="black"/>
<path fill-rule="evenodd" clip-rule="evenodd" d="M23.075 17.7188H19.6625V21.2625H23.075V17.7188ZM18.6875 16.0313C18.3286 16.0313 18.0375 16.3335 18.0375 16.7063V22.275C18.0375 22.6478 18.3286 22.95 18.6875 22.95H24.05C24.409 22.95 24.7 22.6478 24.7 22.275V16.7063C24.7 16.3335 24.409 16.0313 24.05 16.0313H18.6875Z" fill="black"/>
<path d="M11.2938 5.7375H14.7063V9.28125H11.2938V5.7375Z" fill="black"/>
<path d="M11.2938 17.7188H14.7063V21.2625H11.2938V17.7188Z" fill="black"/>
<path d="M19.6625 17.7188H23.075V21.2625H19.6625V17.7188Z" fill="black"/>
<path d="M2.92505 17.7188H6.33755V21.2625H2.92505V17.7188Z" fill="black"/>
<path d="M41.024 22C40.608 22 40.248 21.848 39.944 21.544C39.656 21.24 39.512 20.88 39.512 20.464V7.192C39.512 6.44 39.744 5.888 40.208 5.536C40.688 5.168 41.416 4.984 42.392 4.984V19.48H49.184C49.872 19.48 50.392 19.696 50.744 20.128C51.112 20.544 51.296 21.168 51.296 22H41.024ZM54.3583 22.216C53.7343 22.136 53.2463 21.912 52.8943 21.544C52.5423 21.16 52.3663 20.696 52.3663 20.152C52.3663 19.72 52.4703 19.288 52.6783 18.856L58.2463 5.92C58.5183 5.296 58.9903 4.984 59.6623 4.984C60.3183 4.984 60.7903 5.296 61.0783 5.92L66.6463 18.856C66.8383 19.304 66.9343 19.728 66.9343 20.128C66.9343 20.688 66.7583 21.16 66.4062 21.544C66.0543 21.912 65.5663 22.136 64.9423 22.216L62.9023 17.512H56.3983L54.3583 22.216ZM62.0143 15.016L59.2303 8.032L58.9663 8.128L59.5183 9.496L57.2863 15.016H62.0143ZM70.9057 22C70.5057 22 70.1617 21.872 69.8737 21.616C69.5857 21.344 69.4417 21.024 69.4417 20.656V6.52C69.4417 6.152 69.5777 5.84 69.8497 5.584C70.1377 5.328 70.4897 5.2 70.9057 5.2H77.4097C78.9137 5.2 80.1057 5.624 80.9857 6.472C81.8817 7.32 82.3297 8.456 82.3297 9.88C82.3297 10.584 82.1377 11.256 81.7537 11.896C81.3857 12.52 80.8897 13 80.2657 13.336V13.408C81.1297 13.68 81.8017 14.152 82.2817 14.824C82.7777 15.48 83.0257 16.24 83.0257 17.104C83.0257 18.064 82.8097 18.92 82.3777 19.672C81.9457 20.408 81.3457 20.984 80.5777 21.4C79.8097 21.8 78.9297 22 77.9377 22H70.9057ZM77.3617 12.376C77.9377 12.376 78.4257 12.144 78.8257 11.68C79.2417 11.216 79.4497 10.648 79.4497 9.976C79.4497 9.256 79.2657 8.688 78.8977 8.272C78.5297 7.856 78.0177 7.648 77.3617 7.648H72.2737V12.376H77.3617ZM77.8417 19.528C78.5617 19.528 79.1217 19.32 79.5217 18.904C79.9377 18.472 80.1457 17.888 80.1457 17.152C80.1457 16.4 79.9457 15.824 79.5457 15.424C79.1457 15.008 78.5777 14.8 77.8417 14.8H72.2737V19.528H77.8417ZM91.7197 22.216C90.4077 22.216 89.2077 21.952 88.1197 21.424C87.0477 20.896 86.1997 20.184 85.5757 19.288C84.9517 18.392 84.6397 17.408 84.6397 16.336V10.84C84.6397 9.768 84.9437 8.784 85.5517 7.888C86.1757 6.992 87.0237 6.288 88.0957 5.776C89.1837 5.248 90.3917 4.984 91.7197 4.984C93.0477 4.984 94.2477 5.248 95.3197 5.776C96.4077 6.288 97.2557 6.992 97.8637 7.888C98.4877 8.784 98.7997 9.768 98.7997 10.84V16.336C98.7997 17.408 98.4877 18.392 97.8637 19.288C97.2397 20.184 96.3837 20.896 95.2957 21.424C94.2237 21.952 93.0317 22.216 91.7197 22.216ZM91.7197 19.696C92.9997 19.696 94.0157 19.384 94.7677 18.76C95.5357 18.136 95.9197 17.312 95.9197 16.288V10.888C95.9197 9.864 95.5357 9.048 94.7677 8.44C94.0157 7.816 92.9997 7.504 91.7197 7.504C90.4397 7.504 89.4157 7.816 88.6477 8.44C87.8957 9.048 87.5197 9.864 87.5197 10.888V16.288C87.5197 17.312 87.8957 18.136 88.6477 18.76C89.4157 19.384 90.4397 19.696 91.7197 19.696ZM101.27 6.52C101.27 6.152 101.406 5.84 101.678 5.584C101.966 5.328 102.318 5.2 102.734 5.2H109.19C110.854 5.2 112.158 5.656 113.102 6.568C114.062 7.48 114.542 8.736 114.542 10.336C114.542 11.28 114.342 12.08 113.942 12.736C113.542 13.376 112.942 13.888 112.142 14.272V14.368C112.846 14.672 113.382 15.128 113.75 15.736C114.118 16.328 114.302 17.064 114.302 17.944V20.008C114.302 20.728 114.054 21.28 113.558 21.664C113.078 22.032 112.366 22.216 111.422 22.216V18.064C111.422 16.336 110.686 15.472 109.214 15.472H104.126V20.008C104.126 20.728 103.878 21.28 103.382 21.664C102.902 22.032 102.198 22.216 101.27 22.216V6.52ZM109.07 13C109.87 13 110.494 12.768 110.942 12.304C111.406 11.824 111.638 11.16 111.638 10.312C111.638 8.552 110.782 7.672 109.07 7.672H104.126V13H109.07ZM118.741 22.216C118.117 22.136 117.629 21.912 117.277 21.544C116.925 21.16 116.749 20.696 116.749 20.152C116.749 19.72 116.853 19.288 117.061 18.856L122.629 5.92C122.901 5.296 123.373 4.984 124.045 4.984C124.701 4.984 125.173 5.296 125.461 5.92L131.029 18.856C131.221 19.304 131.317 19.728 131.317 20.128C131.317 20.688 131.141 21.16 130.789 21.544C130.437 21.912 129.949 22.136 129.325 22.216L127.285 17.512H120.781L118.741 22.216ZM126.397 15.016L123.613 8.032L123.349 8.128L123.901 9.496L121.669 15.016H126.397ZM136.216 7.72H130.384C130.384 6.04 131.16 5.2 132.712 5.2H144.904C144.904 6.032 144.704 6.664 144.304 7.096C143.92 7.512 143.344 7.72 142.576 7.72H139.096V20.008C139.096 20.712 138.848 21.256 138.352 21.64C137.856 22.024 137.144 22.216 136.216 22.216V7.72ZM152.353 22.216C151.041 22.216 149.841 21.952 148.753 21.424C147.681 20.896 146.833 20.184 146.209 19.288C145.585 18.392 145.273 17.408 145.273 16.336V10.84C145.273 9.768 145.577 8.784 146.185 7.888C146.809 6.992 147.657 6.288 148.729 5.776C149.817 5.248 151.025 4.984 152.353 4.984C153.681 4.984 154.881 5.248 155.953 5.776C157.041 6.288 157.889 6.992 158.497 7.888C159.121 8.784 159.433 9.768 159.433 10.84V16.336C159.433 17.408 159.121 18.392 158.497 19.288C157.873 20.184 157.017 20.896 155.929 21.424C154.857 21.952 153.665 22.216 152.353 22.216ZM152.353 19.696C153.633 19.696 154.649 19.384 155.401 18.76C156.169 18.136 156.553 17.312 156.553 16.288V10.888C156.553 9.864 156.169 9.048 155.401 8.44C154.649 7.816 153.633 7.504 152.353 7.504C151.073 7.504 150.049 7.816 149.281 8.44C148.529 9.048 148.153 9.864 148.153 10.888V16.288C148.153 17.312 148.529 18.136 149.281 18.76C150.049 19.384 151.073 19.696 152.353 19.696ZM161.903 6.52C161.903 6.152 162.039 5.84 162.311 5.584C162.599 5.328 162.951 5.2 163.367 5.2H169.823C171.487 5.2 172.791 5.656 173.735 6.568C174.695 7.48 175.175 8.736 175.175 10.336C175.175 11.28 174.975 12.08 174.575 12.736C174.175 13.376 173.575 13.888 172.775 14.272V14.368C173.479 14.672 174.015 15.128 174.383 15.736C174.751 16.328 174.935 17.064 174.935 17.944V20.008C174.935 20.728 174.687 21.28 174.191 21.664C173.711 22.032 172.999 22.216 172.055 22.216V18.064C172.055 16.336 171.319 15.472 169.847 15.472H164.759V20.008C164.759 20.728 164.511 21.28 164.015 21.664C163.535 22.032 162.831 22.216 161.903 22.216V6.52ZM169.703 13C170.503 13 171.127 12.768 171.575 12.304C172.039 11.824 172.271 11.16 172.271 10.312C172.271 8.552 171.415 7.672 169.703 7.672H164.759V13H169.703ZM182.021 15.952L176.069 5.296C176.213 5.216 176.429 5.144 176.717 5.08C177.005 5.016 177.269 4.984 177.509 4.984C178.037 4.984 178.477 5.096 178.829 5.32C179.197 5.528 179.509 5.864 179.765 6.328L183.413 13.144L182.789 14.392L183.029 14.512L187.181 6.328C187.629 5.432 188.381 4.984 189.437 4.984C189.677 4.984 189.941 5.016 190.229 5.08C190.517 5.144 190.733 5.216 190.877 5.296L184.925 15.952V20.008C184.925 20.712 184.677 21.256 184.181 21.64C183.685 22.024 182.965 22.216 182.021 22.216V15.952Z" fill="black"/>
</svg>
