<svg width="136" height="32" viewBox="0 0 136 32" fill="none" xmlns="http://www.w3.org/2000/svg">
<path d="M45.024 23C44.608 23 44.248 22.848 43.944 22.544C43.656 22.24 43.512 21.88 43.512 21.464V8.192C43.512 7.44 43.744 6.888 44.208 6.536C44.688 6.168 45.416 5.984 46.392 5.984V20.48H53.184C53.872 20.48 54.392 20.696 54.744 21.128C55.112 21.544 55.296 22.168 55.296 23H45.024ZM62.4853 23.216C61.1733 23.216 59.9733 22.952 58.8853 22.424C57.8133 21.896 56.9653 21.184 56.3413 20.288C55.7173 19.392 55.4053 18.408 55.4053 17.336V11.84C55.4053 10.768 55.7093 9.784 56.3173 8.888C56.9413 7.992 57.7893 7.288 58.8613 6.776C59.9493 6.248 61.1573 5.984 62.4853 5.984C63.8133 5.984 65.0133 6.248 66.0853 6.776C67.1733 7.288 68.0213 7.992 68.6293 8.888C69.2533 9.784 69.5653 10.768 69.5653 11.84V17.336C69.5653 18.408 69.2533 19.392 68.6293 20.288C68.0053 21.184 67.1493 21.896 66.0613 22.424C64.9893 22.952 63.7973 23.216 62.4853 23.216ZM62.4853 20.696C63.7653 20.696 64.7813 20.384 65.5333 19.76C66.3013 19.136 66.6853 18.312 66.6853 17.288V11.888C66.6853 10.864 66.3013 10.048 65.5333 9.44C64.7813 8.816 63.7653 8.504 62.4853 8.504C61.2053 8.504 60.1813 8.816 59.4133 9.44C58.6613 10.048 58.2853 10.864 58.2853 11.888V17.288C58.2853 18.312 58.6613 19.136 59.4133 19.76C60.1813 20.384 61.2053 20.696 62.4853 20.696ZM78.8994 23.216C77.4914 23.216 76.2354 22.952 75.1314 22.424C74.0434 21.88 73.1954 21.136 72.5874 20.192C71.9794 19.232 71.6754 18.144 71.6754 16.928V12.2C71.6754 10.984 71.9714 9.912 72.5634 8.984C73.1714 8.04 74.0114 7.304 75.0834 6.776C76.1714 6.248 77.4034 5.984 78.7794 5.984C80.1554 5.984 81.3794 6.2 82.4514 6.632C83.5394 7.048 84.3794 7.632 84.9714 8.384C85.5794 9.136 85.8834 9.992 85.8834 10.952C85.8834 11.512 85.6994 11.952 85.3314 12.272C84.9634 12.576 84.4674 12.728 83.8434 12.728C83.5394 12.728 83.2514 12.696 82.9794 12.632C83.0274 12.392 83.0514 12.04 83.0514 11.576C83.0514 10.664 82.6514 9.92 81.8514 9.344C81.0674 8.768 80.0434 8.48 78.7794 8.48C77.5314 8.48 76.5154 8.824 75.7314 9.512C74.9474 10.2 74.5554 11.096 74.5554 12.2V16.928C74.5554 17.664 74.7394 18.32 75.1074 18.896C75.4754 19.472 75.9874 19.92 76.6434 20.24C77.2994 20.56 78.0514 20.72 78.8994 20.72C80.1314 20.72 81.1394 20.424 81.9234 19.832C82.7234 19.224 83.1234 18.456 83.1234 17.528V16.568H80.7234C80.1634 16.568 79.6994 16.36 79.3314 15.944C78.9794 15.512 78.8034 14.952 78.8034 14.264H84.6354C85.0514 14.264 85.3794 14.384 85.6194 14.624C85.8754 14.864 86.0034 15.184 86.0034 15.584V17.576C86.0034 18.664 85.6994 19.64 85.0914 20.504C84.4994 21.352 83.6594 22.016 82.5714 22.496C81.4994 22.976 80.2754 23.216 78.8994 23.216ZM95.1338 23.216C93.8218 23.216 92.6218 22.952 91.5338 22.424C90.4618 21.896 89.6138 21.184 88.9898 20.288C88.3658 19.392 88.0538 18.408 88.0538 17.336V11.84C88.0538 10.768 88.3578 9.784 88.9658 8.888C89.5898 7.992 90.4378 7.288 91.5098 6.776C92.5978 6.248 93.8058 5.984 95.1338 5.984C96.4618 5.984 97.6618 6.248 98.7338 6.776C99.8218 7.288 100.67 7.992 101.278 8.888C101.902 9.784 102.214 10.768 102.214 11.84V17.336C102.214 18.408 101.902 19.392 101.278 20.288C100.654 21.184 99.7978 21.896 98.7098 22.424C97.6378 22.952 96.4458 23.216 95.1338 23.216ZM95.1338 20.696C96.4138 20.696 97.4298 20.384 98.1818 19.76C98.9498 19.136 99.3338 18.312 99.3338 17.288V11.888C99.3338 10.864 98.9498 10.048 98.1818 9.44C97.4298 8.816 96.4138 8.504 95.1338 8.504C93.8538 8.504 92.8298 8.816 92.0618 9.44C91.3098 10.048 90.9338 10.864 90.9338 11.888V17.288C90.9338 18.312 91.3098 19.136 92.0618 19.76C92.8298 20.384 93.8538 20.696 95.1338 20.696ZM111.524 23.216C110.196 23.216 109.004 22.952 107.948 22.424C106.892 21.88 106.06 21.136 105.452 20.192C104.86 19.248 104.564 18.184 104.564 17V8.192C104.564 7.472 104.804 6.928 105.284 6.56C105.78 6.176 106.5 5.984 107.444 5.984V17C107.444 18.12 107.812 19.016 108.548 19.688C109.3 20.344 110.292 20.672 111.524 20.672C112.74 20.672 113.716 20.336 114.452 19.664C115.204 18.992 115.58 18.104 115.58 17V8.192C115.58 7.472 115.82 6.928 116.3 6.56C116.796 6.176 117.516 5.984 118.46 5.984V17C118.46 18.184 118.156 19.248 117.548 20.192C116.956 21.136 116.132 21.88 115.076 22.424C114.02 22.952 112.836 23.216 111.524 23.216ZM126.411 8.72H120.579C120.579 7.04 121.355 6.2 122.907 6.2H135.099C135.099 7.032 134.899 7.664 134.499 8.096C134.115 8.512 133.539 8.72 132.771 8.72H129.291V21.008C129.291 21.712 129.043 22.256 128.547 22.64C128.051 23.024 127.339 23.216 126.411 23.216V8.72Z" fill="#FF0000"/>
<path d="M31.8237 0.0199413C31.7874 0.0172663 31.7567 0 31.7187 0H16.0417C13.6297 0 11.6667 1.78767 11.6667 3.98438V5.31242C11.6667 6.04563 12.3199 6.64071 13.125 6.64071C13.9301 6.64071 14.5832 6.04563 14.5832 5.31242V3.98438C14.5832 3.25263 15.238 2.65633 16.0417 2.65633H22.836L22.3912 2.79179C21.2101 3.16362 20.4167 4.17698 20.4167 5.31242V25.2343H16.0417C15.238 25.2343 14.5832 24.638 14.5832 23.9062V21.2499C14.5832 20.517 13.9301 19.9219 13.125 19.9219C12.3199 19.9219 11.6667 20.517 11.6667 21.2499V23.9062C11.6667 26.103 13.6297 27.8906 16.0417 27.8906H20.4167V29.2187C20.4167 30.6836 21.7247 31.875 23.3332 31.875C23.6454 31.875 23.9415 31.8339 24.2622 31.7434L33.024 29.0832C34.2066 28.7114 35 27.698 35 26.5626V2.65633C35 1.10772 33.5343 -0.106273 31.8237 0.0199413V0.0199413Z" fill="#FF1818"/>
<path d="M15.6142 12.3422L9.781 7.02981C9.3639 6.64995 8.73692 6.53565 8.19138 6.74163C7.64744 6.94737 7.29176 7.43228 7.29176 7.96875V11.9531H1.45824C0.65342 11.9531 0 12.5482 0 13.2812C0 14.0144 0.65342 14.6095 1.45824 14.6095H7.29176V18.5938C7.29176 19.1303 7.64744 19.615 8.19138 19.821C8.73692 20.0267 9.3639 19.9126 9.781 19.5328L15.6142 14.2201C16.1846 13.7009 16.1846 12.8617 15.6142 12.3422Z" fill="#FF0000"/>
</svg>
