<svg width="162" height="29" viewBox="0 0 162 29" fill="none" xmlns="http://www.w3.org/2000/svg">
<path d="M48.04 22.216C46.728 22.216 45.528 21.952 44.44 21.424C43.368 20.896 42.52 20.184 41.896 19.288C41.272 18.392 40.96 17.408 40.96 16.336V10.84C40.96 9.768 41.264 8.784 41.872 7.888C42.496 6.992 43.344 6.288 44.416 5.776C45.504 5.248 46.712 4.984 48.04 4.984C49.368 4.984 50.568 5.248 51.64 5.776C52.728 6.288 53.576 6.992 54.184 7.888C54.808 8.784 55.12 9.768 55.12 10.84V16.336C55.12 17.408 54.808 18.392 54.184 19.288C53.56 20.184 52.704 20.896 51.616 21.424C50.544 21.952 49.352 22.216 48.04 22.216ZM48.04 19.696C49.32 19.696 50.336 19.384 51.088 18.76C51.856 18.136 52.24 17.312 52.24 16.288V10.888C52.24 9.864 51.856 9.048 51.088 8.44C50.336 7.816 49.32 7.504 48.04 7.504C46.76 7.504 45.736 7.816 44.968 8.44C44.216 9.048 43.84 9.864 43.84 10.888V16.288C43.84 17.312 44.216 18.136 44.968 18.76C45.736 19.384 46.76 19.696 48.04 19.696ZM63.1684 22.216C62.4644 22.216 61.9924 21.896 61.7524 21.256L55.6084 5.272C55.7524 5.192 55.9444 5.128 56.1844 5.08C56.4244 5.016 56.6484 4.984 56.8564 4.984C57.4164 4.984 57.8804 5.112 58.2484 5.368C58.6324 5.608 58.9124 5.96 59.0884 6.424L63.0004 17.392L62.4964 18.832L62.7364 18.928L67.2244 6.424C67.5924 5.464 68.3444 4.984 69.4804 4.984C69.6724 4.984 69.8804 5.016 70.1044 5.08C70.3444 5.128 70.5444 5.192 70.7044 5.272L64.5844 21.256C64.4724 21.56 64.2884 21.8 64.0324 21.976C63.7924 22.136 63.5044 22.216 63.1684 22.216ZM73.1761 6.52C73.1761 6.152 73.3121 5.84 73.5841 5.584C73.8721 5.328 74.2241 5.2 74.6401 5.2H85.3201C85.3201 6.064 85.1601 6.696 84.8401 7.096C84.5361 7.496 84.0401 7.696 83.3521 7.696H76.0561V12.28H82.5601C82.5601 13.144 82.4001 13.776 82.0801 14.176C81.7761 14.576 81.2881 14.776 80.6161 14.776H76.0561V19.504H83.8561C84.5281 19.504 85.0161 19.704 85.3201 20.104C85.6401 20.504 85.8001 21.136 85.8001 22H74.6401C74.2241 22 73.8721 21.872 73.5841 21.616C73.3121 21.36 73.1761 21.04 73.1761 20.656V6.52ZM88.2698 6.52C88.2698 6.152 88.4058 5.84 88.6778 5.584C88.9658 5.328 89.3178 5.2 89.7338 5.2H96.1898C97.8538 5.2 99.1578 5.656 100.102 6.568C101.062 7.48 101.542 8.736 101.542 10.336C101.542 11.28 101.342 12.08 100.942 12.736C100.542 13.376 99.9418 13.888 99.1418 14.272V14.368C99.8458 14.672 100.382 15.128 100.75 15.736C101.118 16.328 101.302 17.064 101.302 17.944V20.008C101.302 20.728 101.054 21.28 100.558 21.664C100.078 22.032 99.3658 22.216 98.4218 22.216V18.064C98.4218 16.336 97.6858 15.472 96.2138 15.472H91.1258V20.008C91.1258 20.728 90.8778 21.28 90.3818 21.664C89.9018 22.032 89.1978 22.216 88.2698 22.216V6.52ZM96.0698 13C96.8698 13 97.4938 12.768 97.9418 12.304C98.4058 11.824 98.6378 11.16 98.6378 10.312C98.6378 8.552 97.7818 7.672 96.0698 7.672H91.1258V13H96.0698ZM110.465 22.216C109.761 22.216 109.289 21.896 109.049 21.256L102.905 5.272C103.049 5.192 103.241 5.128 103.481 5.08C103.721 5.016 103.945 4.984 104.153 4.984C104.713 4.984 105.177 5.112 105.545 5.368C105.929 5.608 106.209 5.96 106.385 6.424L110.297 17.392L109.793 18.832L110.033 18.928L114.521 6.424C114.889 5.464 115.641 4.984 116.777 4.984C116.969 4.984 117.177 5.016 117.401 5.08C117.641 5.128 117.841 5.192 118.001 5.272L111.881 21.256C111.769 21.56 111.585 21.8 111.329 21.976C111.089 22.136 110.801 22.216 110.465 22.216ZM120.953 7.192C120.953 6.488 121.201 5.944 121.697 5.56C122.209 5.176 122.921 4.984 123.833 4.984V19.984C123.833 20.688 123.585 21.24 123.089 21.64C122.593 22.024 121.881 22.216 120.953 22.216V7.192ZM127.34 6.52C127.34 6.152 127.476 5.84 127.748 5.584C128.036 5.328 128.388 5.2 128.804 5.2H139.484C139.484 6.064 139.324 6.696 139.004 7.096C138.7 7.496 138.204 7.696 137.516 7.696H130.22V12.28H136.724C136.724 13.144 136.564 13.776 136.244 14.176C135.94 14.576 135.452 14.776 134.78 14.776H130.22V19.504H138.02C138.692 19.504 139.18 19.704 139.484 20.104C139.804 20.504 139.964 21.136 139.964 22H128.804C128.388 22 128.036 21.872 127.748 21.616C127.476 21.36 127.34 21.04 127.34 20.656V6.52ZM147.849 22.216C147.129 22.216 146.537 22.048 146.073 21.712C145.609 21.376 145.289 20.896 145.113 20.272L141.273 5.296C141.625 5.088 142.057 4.984 142.569 4.984C143.129 4.984 143.585 5.112 143.937 5.368C144.305 5.624 144.545 5.992 144.657 6.472L146.889 16.336L146.433 18.04L146.625 18.112L150.081 5.944C150.177 5.64 150.337 5.408 150.561 5.248C150.801 5.072 151.073 4.984 151.377 4.984C151.697 4.984 151.969 5.072 152.193 5.248C152.433 5.408 152.593 5.64 152.673 5.944L155.553 16.504L155.121 18.304L155.361 18.376L158.097 6.472C158.209 6.008 158.441 5.648 158.793 5.392C159.161 5.12 159.617 4.984 160.161 4.984C160.689 4.984 161.129 5.088 161.481 5.296L157.641 20.272C157.481 20.896 157.169 21.376 156.705 21.712C156.241 22.048 155.641 22.216 154.905 22.216L151.089 8.488L150.921 8.536L151.281 9.856L147.849 22.216Z" fill="black"/>
<path fill-rule="evenodd" clip-rule="evenodd" d="M16.915 19.4499C17.8158 20.4147 18.0241 21.8906 17.3299 23.0931C16.479 24.5668 14.5946 25.0717 13.1208 24.2209C11.6471 23.37 11.1421 21.4856 11.993 20.0118C12.6851 18.8131 14.061 18.2553 15.3435 18.5468L19.2422 11.6722C19.341 11.498 19.5622 11.4369 19.7364 11.5357L20.6823 12.0722C20.8565 12.1709 20.9176 12.3922 20.8188 12.5663L16.915 19.4499ZM15.2958 20.4537C15.9027 20.804 16.1106 21.58 15.7602 22.1868C15.4099 22.7936 14.6339 23.0016 14.0271 22.6512C13.4202 22.3008 13.2123 21.5249 13.5627 20.9181C13.913 20.3112 14.689 20.1033 15.2958 20.4537Z" fill="black"/>
<path d="M1.59881 19.6653C1.66211 20.0237 1.74046 20.3798 1.83379 20.7326C1.9362 21.1198 2.34741 21.3278 2.72826 21.2039L11.2071 18.4464C11.5878 18.3226 11.7854 17.9112 11.7663 17.5114C11.7575 17.3266 11.7676 17.1407 11.7967 16.9568C11.8334 16.7256 11.8996 16.5009 11.9931 16.288L11.9947 16.2845C12.0723 16.1085 12.1687 15.9407 12.2825 15.784C12.5347 15.4369 12.8654 15.1544 13.2477 14.9597C13.63 14.7649 14.053 14.6633 14.482 14.6633C14.7898 14.6633 15.0945 14.7156 15.3833 14.8171C15.5722 14.8834 15.79 14.8151 15.8809 14.6367L16.3746 13.6677C16.4655 13.4893 16.395 13.2696 16.2099 13.1932C15.663 12.9676 15.076 12.8508 14.482 12.8508C13.7669 12.8508 13.062 13.0201 12.4249 13.3447C11.7877 13.6694 11.2365 14.1402 10.8162 14.7187C10.3958 15.2972 10.1184 15.967 10.0066 16.6732C9.99226 16.7635 9.98072 16.8541 9.97192 16.9447L3.34224 19.0989C3.16687 17.9552 3.16862 16.7876 3.35076 15.6376C3.62818 13.886 4.3162 12.225 5.35858 10.7903C6.40095 9.35559 7.76808 8.18795 9.34819 7.38285C10.9283 6.57775 12.6765 6.15804 14.4499 6.15804C16.2233 6.15804 17.9715 6.57774 19.5516 7.38285C21.1317 8.18795 22.4989 9.35559 23.5412 10.7903C24.5836 12.225 25.2716 13.886 25.5491 15.6376C25.7312 16.7876 25.7329 17.9552 25.5576 19.0989L20.1668 17.3473C19.9985 17.2926 19.8153 17.3674 19.7334 17.5243L19.2229 18.5018C19.1191 18.7007 19.2189 18.9451 19.4323 19.0144L26.1717 21.2042C26.5525 21.3279 26.9636 21.1199 27.066 20.7328C27.1593 20.3799 27.2377 20.0238 27.301 19.6653C27.552 18.2444 27.5663 16.7875 27.3392 15.3541C27.0171 13.32 26.2181 11.391 25.0076 9.72494C23.7971 8.05883 22.2094 6.70286 20.3745 5.7679C18.5395 4.83294 16.5093 4.34554 14.4499 4.34554C12.3905 4.34554 10.3603 4.83294 8.52533 5.7679C6.69037 6.70286 5.10273 8.05883 3.89223 9.72494C2.68173 11.391 1.88274 13.32 1.56057 15.3541C1.33354 16.7875 1.34785 18.2444 1.59881 19.6653Z" fill="black"/>
</svg>
