<svg width="128" height="28" viewBox="0 0 128 28" fill="none" xmlns="http://www.w3.org/2000/svg">
<path d="M40.512 6.52C40.512 6.152 40.648 5.84 40.92 5.584C41.208 5.328 41.56 5.2 41.976 5.2H48.432C50.096 5.2 51.4 5.656 52.344 6.568C53.304 7.48 53.784 8.736 53.784 10.336C53.784 11.28 53.584 12.08 53.184 12.736C52.784 13.376 52.184 13.888 51.384 14.272V14.368C52.088 14.672 52.624 15.128 52.992 15.736C53.36 16.328 53.544 17.064 53.544 17.944V20.008C53.544 20.728 53.296 21.28 52.8 21.664C52.32 22.032 51.608 22.216 50.664 22.216V18.064C50.664 16.336 49.928 15.472 48.456 15.472H43.368V20.008C43.368 20.728 43.12 21.28 42.624 21.664C42.144 22.032 41.44 22.216 40.512 22.216V6.52ZM48.312 13C49.112 13 49.736 12.768 50.184 12.304C50.648 11.824 50.88 11.16 50.88 10.312C50.88 8.552 50.024 7.672 48.312 7.672H43.368V13H48.312ZM56.5433 6.52C56.5433 6.152 56.6793 5.84 56.9513 5.584C57.2393 5.328 57.5913 5.2 58.0073 5.2H68.6873C68.6873 6.064 68.5273 6.696 68.2073 7.096C67.9033 7.496 67.4073 7.696 66.7193 7.696H59.4233V12.28H65.9273C65.9273 13.144 65.7673 13.776 65.4473 14.176C65.1433 14.576 64.6553 14.776 63.9833 14.776H59.4233V19.504H67.2233C67.8953 19.504 68.3833 19.704 68.6873 20.104C69.0073 20.504 69.1673 21.136 69.1673 22H58.0073C57.5913 22 57.2393 21.872 56.9513 21.616C56.6793 21.36 56.5433 21.04 56.5433 20.656V6.52ZM77.4116 22.216C76.0036 22.216 74.7796 22.032 73.7396 21.664C72.6996 21.296 71.8996 20.792 71.3396 20.152C70.7956 19.512 70.5236 18.776 70.5236 17.944C70.5236 16.648 71.3396 16 72.9716 16C73.0036 17.264 73.4036 18.224 74.1716 18.88C74.9556 19.536 76.0516 19.864 77.4596 19.864C78.6916 19.864 79.6436 19.656 80.3156 19.24C80.9876 18.824 81.3236 18.224 81.3236 17.44C81.3236 16.944 81.1956 16.544 80.9396 16.24C80.6836 15.92 80.2516 15.64 79.6436 15.4C79.0356 15.144 78.1556 14.888 77.0036 14.632C75.4676 14.296 74.2516 13.904 73.3556 13.456C72.4756 13.008 71.8356 12.472 71.4356 11.848C71.0356 11.224 70.8356 10.448 70.8356 9.52C70.8356 8.624 71.0996 7.832 71.6276 7.144C72.1556 6.456 72.8996 5.928 73.8596 5.56C74.8196 5.176 75.9316 4.984 77.1956 4.984C78.3956 4.984 79.4756 5.152 80.4356 5.488C81.3956 5.808 82.1476 6.264 82.6916 6.856C83.2356 7.448 83.5076 8.128 83.5076 8.896C83.5076 10 82.7316 10.576 81.1796 10.624C81.0516 9.472 80.6676 8.632 80.0276 8.104C79.4036 7.576 78.4596 7.312 77.1956 7.312C76.0756 7.312 75.2116 7.504 74.6036 7.888C73.9956 8.272 73.6916 8.816 73.6916 9.52C73.6916 10 73.8036 10.4 74.0276 10.72C74.2676 11.024 74.6596 11.296 75.2036 11.536C75.7476 11.76 76.5316 11.984 77.5556 12.208C79.1876 12.576 80.4836 12.992 81.4436 13.456C82.4036 13.904 83.0916 14.448 83.5076 15.088C83.9396 15.712 84.1556 16.496 84.1556 17.44C84.1556 18.416 83.8756 19.264 83.3156 19.984C82.7716 20.704 81.9876 21.256 80.9636 21.64C79.9556 22.024 78.7716 22.216 77.4116 22.216ZM93.477 22.216C92.149 22.216 90.957 21.952 89.901 21.424C88.845 20.88 88.013 20.136 87.405 19.192C86.813 18.248 86.517 17.184 86.517 16V7.192C86.517 6.472 86.757 5.928 87.237 5.56C87.733 5.176 88.453 4.984 89.397 4.984V16C89.397 17.12 89.765 18.016 90.501 18.688C91.253 19.344 92.245 19.672 93.477 19.672C94.693 19.672 95.669 19.336 96.405 18.664C97.157 17.992 97.533 17.104 97.533 16V7.192C97.533 6.472 97.773 5.928 98.253 5.56C98.749 5.176 99.469 4.984 100.413 4.984V16C100.413 17.184 100.109 18.248 99.501 19.192C98.909 20.136 98.085 20.88 97.029 21.424C95.973 21.952 94.789 22.216 93.477 22.216ZM104.837 22C104.421 22 104.061 21.848 103.757 21.544C103.469 21.24 103.325 20.88 103.325 20.464V7.192C103.325 6.44 103.557 5.888 104.021 5.536C104.501 5.168 105.229 4.984 106.205 4.984V19.48H112.997C113.685 19.48 114.205 19.696 114.557 20.128C114.925 20.544 115.109 21.168 115.109 22H104.837ZM118.419 7.72H112.587C112.587 6.04 113.363 5.2 114.915 5.2H127.107C127.107 6.032 126.907 6.664 126.507 7.096C126.123 7.512 125.547 7.72 124.779 7.72H121.299V20.008C121.299 20.712 121.051 21.256 120.555 21.64C120.059 22.024 119.347 22.216 118.419 22.216V7.72Z" fill="black"/>
<path fill-rule="evenodd" clip-rule="evenodd" d="M16.4501 4.7268C16.996 4.83823 17.5313 5.00182 18.0485 5.21607C19.1101 5.6558 20.0747 6.30032 20.8872 7.11283C21.6997 7.92534 22.3443 8.88994 22.784 9.95153C22.9982 10.4688 23.1618 11.0041 23.2733 11.55L19.2769 11.55C19.2609 11.5081 19.2443 11.4664 19.2271 11.4249C18.9808 10.8304 18.6199 10.2902 18.1649 9.83519C17.7099 9.38018 17.1697 9.01925 16.5752 8.773C16.5337 8.75581 16.492 8.7392 16.4501 8.72317V4.7268ZM16.4501 2.94687C17.2264 3.0781 17.9874 3.29655 18.7182 3.59928C19.9921 4.12695 21.1497 4.90038 22.1247 5.87539C23.0997 6.85041 23.8731 8.00792 24.4008 9.28184C24.7035 10.0127 24.922 10.7737 25.0532 11.55C25.1313 12.0123 25.1785 12.48 25.1942 12.9501C25.2007 13.1433 25.0434 13.3 24.8501 13.3L18.2001 13.3C18.0068 13.3 17.8521 13.1428 17.8306 12.9507C17.7979 12.657 17.7238 12.3687 17.6103 12.0946C17.452 11.7124 17.2199 11.3651 16.9274 11.0726C16.6349 10.7801 16.2877 10.5481 15.9055 10.3898C15.7079 10.308 15.3209 10.2365 15.0104 10.1907C14.834 10.1647 14.7001 10.0152 14.7001 9.83696V3.15001C14.7001 2.95671 14.8569 2.7994 15.05 2.80585C15.5201 2.82152 15.9878 2.86874 16.4501 2.94687ZM11.55 4.34687C10.4352 4.53532 9.35429 4.90324 8.35038 5.43984C6.82754 6.25382 5.52894 7.4308 4.56962 8.86653C3.6103 10.3023 3.01986 11.9524 2.85061 13.6708C2.68136 15.3893 2.93852 17.1229 3.59932 18.7182C4.26011 20.3135 5.30414 21.7212 6.63892 22.8166C7.97371 23.9121 9.55805 24.6614 11.2516 24.9983C12.9452 25.3351 14.6957 25.2491 16.348 24.7479C17.4373 24.4175 18.4618 23.9133 19.3834 23.2582C19.7608 22.99 20.1289 22.6884 20.4723 22.368C20.6138 22.2359 20.6136 22.0136 20.4768 21.8767L15.7749 17.1749C15.6382 17.0382 15.4177 17.04 15.2667 17.1606C14.9551 17.4097 14.5982 17.598 14.2144 17.7144C13.7187 17.8647 13.1936 17.8905 12.6855 17.7895C12.1775 17.6884 11.7021 17.4636 11.3017 17.135C10.9013 16.8064 10.5881 16.3841 10.3898 15.9055C10.1916 15.4269 10.1144 14.9068 10.1652 14.3913C10.216 13.8757 10.3931 13.3807 10.6809 12.95C10.9687 12.5193 11.3583 12.1662 11.8152 11.922C12.1686 11.733 12.5539 11.6138 12.9501 11.5695C13.1422 11.548 13.3 11.3933 13.3 11.2L13.3 4.56188C13.3 4.36401 13.1362 4.20544 12.9386 4.2161C12.4804 4.2408 11.9082 4.28633 11.55 4.34687ZM11.55 6.1268C10.7242 6.29537 9.92408 6.58299 9.17533 6.9832C7.90629 7.66152 6.82413 8.64234 6.02469 9.83878C5.22526 11.0352 4.73323 12.4103 4.59218 13.8424C4.45114 15.2744 4.66545 16.7191 5.21611 18.0485C5.76677 19.3779 6.63679 20.551 7.74911 21.4639C8.86143 22.3767 10.1817 23.0012 11.593 23.2819C13.0043 23.5626 14.4631 23.4909 15.84 23.0732C16.6525 22.8268 17.4217 22.4644 18.1248 21.9996L15.2989 19.1738C15.112 19.2573 14.9195 19.3292 14.7224 19.389C13.9513 19.6229 13.1344 19.6631 12.3441 19.5059C11.5538 19.3487 10.8144 18.999 10.1915 18.4878C9.56862 17.9766 9.08141 17.3196 8.77304 16.5752C8.46467 15.8307 8.34466 15.0217 8.42365 14.2197C8.50263 13.4178 8.77817 12.6477 9.22585 11.9777C9.67353 11.3077 10.2795 10.7585 10.9902 10.3786C11.1718 10.2815 11.3588 10.1963 11.55 10.1232L11.55 6.1268ZM18.5583 17.0172C18.4384 17.1678 18.4374 17.3874 18.5735 17.5235L23.2772 22.2271C23.4139 22.3638 23.6359 22.3642 23.768 22.2231C24.0893 21.8796 24.3866 21.5155 24.6583 21.1334C25.1144 20.4916 25.4981 19.7991 25.8008 19.0682C26.1035 18.3373 26.322 17.5764 26.4532 16.8C26.5313 16.3377 26.5785 15.87 26.5942 15.4C26.6007 15.2068 26.4433 15.05 26.2501 15.05H19.6001C19.4068 15.05 19.2521 15.2072 19.2306 15.3993C19.1979 15.6931 19.1238 15.9813 19.0103 16.2555C18.8983 16.5258 18.743 16.7851 18.5583 17.0172ZM20.5738 17.0489C20.5921 17.0079 20.6099 16.9667 20.6271 16.9252C20.6443 16.8837 20.6609 16.8419 20.6769 16.8H24.6733C24.5618 17.3459 24.3982 17.8813 24.184 18.3985C23.9697 18.9157 23.7069 19.4099 23.3997 19.8748L20.5738 17.0489Z" fill="black"/>
<path d="M9.17533 6.9832C9.92408 6.58299 10.7242 6.29537 11.55 6.1268L11.55 10.1232C11.3588 10.1963 11.1718 10.2815 10.9902 10.3786C10.2795 10.7585 9.67353 11.3077 9.22585 11.9777C8.77817 12.6477 8.50263 13.4178 8.42365 14.2197C8.34466 15.0217 8.46467 15.8307 8.77304 16.5752C9.08141 17.3196 9.56862 17.9766 10.1915 18.4878C10.8144 18.999 11.5538 19.3487 12.3441 19.5059C13.1344 19.6631 13.9513 19.6229 14.7224 19.389C14.9195 19.3292 15.112 19.2573 15.2989 19.1738L18.1248 21.9996C17.4217 22.4644 16.6525 22.8268 15.84 23.0732C14.4631 23.4909 13.0043 23.5626 11.593 23.2819C10.1817 23.0012 8.86143 22.3767 7.74911 21.4639C6.63679 20.551 5.76677 19.3779 5.21611 18.0485C4.66545 16.7191 4.45114 15.2744 4.59218 13.8424C4.73323 12.4103 5.22526 11.0352 6.02469 9.83878C6.82413 8.64234 7.90629 7.66152 9.17533 6.9832Z" fill="black"/>
<path d="M16.4501 4.7268C16.996 4.83823 17.5313 5.00182 18.0485 5.21607C19.1101 5.6558 20.0747 6.30032 20.8872 7.11283C21.6997 7.92534 22.3443 8.88994 22.784 9.95153C22.9982 10.4688 23.1618 11.0041 23.2733 11.55L19.2769 11.55C19.2609 11.5081 19.2443 11.4664 19.2271 11.4249C18.9808 10.8304 18.6199 10.2902 18.1649 9.83519C17.7099 9.38018 17.1697 9.01925 16.5752 8.773C16.5337 8.75581 16.492 8.7392 16.4501 8.72317V4.7268Z" fill="black"/>
<path d="M20.5738 17.0489C20.5921 17.0079 20.6099 16.9667 20.6271 16.9252C20.6443 16.8837 20.6609 16.8419 20.6769 16.8H24.6733C24.5618 17.3459 24.3982 17.8813 24.184 18.3985C23.9697 18.9157 23.7069 19.4099 23.3997 19.8748L20.5738 17.0489Z" fill="black"/>
</svg>
