<svg width="164" height="22" viewBox="0 0 164 22" fill="none" xmlns="http://www.w3.org/2000/svg">
<path d="M23.4688 0.21875L3.53125 0.21875C2.81019 0.21875 2.11867 0.515066 1.6088 1.04251C1.09894 1.56996 0.8125 2.28533 0.8125 3.03125L0.8125 18.9688C0.8125 19.7147 1.09894 20.43 1.6088 20.9575C2.11867 21.4849 2.81019 21.7812 3.53125 21.7812H23.4688C24.1898 21.7812 24.8813 21.4849 25.3912 20.9575C25.9011 20.43 26.1875 19.7147 26.1875 18.9688V3.03125C26.1875 2.28533 25.9011 1.56996 25.3912 1.04251C24.8813 0.515066 24.1898 0.21875 23.4688 0.21875ZM24.375 3.03125V10.0625H18.9375V2.09375L23.4688 2.09375C23.7091 2.09375 23.9396 2.19252 24.1096 2.36834C24.2795 2.54415 24.375 2.78261 24.375 3.03125ZM2.625 18.9688L2.625 3.03125C2.625 2.78261 2.72048 2.54415 2.89043 2.36834C3.06039 2.19252 3.2909 2.09375 3.53125 2.09375L17.125 2.09375V11C17.125 11 17.125 11 17.125 11.0562V19.9062H3.53125C3.2909 19.9062 3.06039 19.8075 2.89043 19.6317C2.72048 19.4558 2.625 19.2174 2.625 18.9688ZM23.4688 19.9062H18.9375V11.9375H24.375V18.9688C24.375 19.2174 24.2795 19.4558 24.1096 19.6317C23.9396 19.8075 23.7091 19.9062 23.4688 19.9062Z" fill="black"/>
<path d="M11.7872 10.1844C12.1754 9.7944 12.4423 9.29347 12.5537 8.74568C12.6651 8.1979 12.6159 7.62819 12.4125 7.10948C12.2091 6.59076 11.8607 6.14663 11.4119 5.83394C10.9631 5.52124 10.4343 5.3542 9.89316 5.3542C9.35205 5.3542 8.82325 5.52124 8.37443 5.83394C7.92562 6.14663 7.57721 6.59076 7.37381 7.10948C7.1704 7.62819 7.12125 8.1979 7.23265 8.74568C7.34404 9.29347 7.61091 9.7944 7.9991 10.1844C5.99629 10.7656 4.50098 12.9969 4.50098 15.6594C4.50098 15.908 4.59646 16.1465 4.76641 16.3223C4.93637 16.4981 5.16687 16.5969 5.40723 16.5969C5.64758 16.5969 5.87809 16.4981 6.04804 16.3223C6.218 16.1465 6.31348 15.908 6.31348 15.6594C6.31348 13.5875 7.53691 11.9094 9.03223 11.9094H10.8447C12.34 11.9094 13.5635 13.5875 13.5635 15.6594C13.5635 15.908 13.659 16.1465 13.8289 16.3223C13.9989 16.4981 14.2294 16.5969 14.4697 16.5969C14.7101 16.5969 14.9406 16.4981 15.1105 16.3223C15.2805 16.1465 15.376 15.908 15.376 15.6594C15.376 12.9875 13.8354 10.7281 11.7872 10.1844ZM9.87504 7.25C10.0543 7.25 10.2295 7.30498 10.3785 7.408C10.5276 7.51101 10.6437 7.65743 10.7123 7.82873C10.7809 8.00004 10.7988 8.18854 10.7639 8.3704C10.7289 8.55226 10.6426 8.7193 10.5159 8.85041C10.3891 8.98153 10.2276 9.07081 10.0518 9.10699C9.87604 9.14316 9.69383 9.1246 9.52823 9.05364C9.36264 8.98268 9.2211 8.86252 9.12152 8.70835C9.02194 8.55418 8.96879 8.37292 8.96879 8.1875C8.96879 7.93886 9.06427 7.7004 9.23422 7.52459C9.40418 7.34877 9.63469 7.25 9.87504 7.25Z" fill="black"/>
<path d="M46.896 19.216C45.488 19.216 44.264 19.032 43.224 18.664C42.184 18.296 41.384 17.792 40.824 17.152C40.28 16.512 40.008 15.776 40.008 14.944C40.008 13.648 40.824 13 42.456 13C42.488 14.264 42.888 15.224 43.656 15.88C44.44 16.536 45.536 16.864 46.944 16.864C48.176 16.864 49.128 16.656 49.8 16.24C50.472 15.824 50.808 15.224 50.808 14.44C50.808 13.944 50.68 13.544 50.424 13.24C50.168 12.92 49.736 12.64 49.128 12.4C48.52 12.144 47.64 11.888 46.488 11.632C44.952 11.296 43.736 10.904 42.84 10.456C41.96 10.008 41.32 9.472 40.92 8.848C40.52 8.224 40.32 7.448 40.32 6.52C40.32 5.624 40.584 4.832 41.112 4.144C41.64 3.456 42.384 2.928 43.344 2.56C44.304 2.176 45.416 1.984 46.68 1.984C47.88 1.984 48.96 2.152 49.92 2.488C50.88 2.808 51.632 3.264 52.176 3.856C52.72 4.448 52.992 5.128 52.992 5.896C52.992 7 52.216 7.576 50.664 7.624C50.536 6.472 50.152 5.632 49.512 5.104C48.888 4.576 47.944 4.312 46.68 4.312C45.56 4.312 44.696 4.504 44.088 4.888C43.48 5.272 43.176 5.816 43.176 6.52C43.176 7 43.288 7.4 43.512 7.72C43.752 8.024 44.144 8.296 44.688 8.536C45.232 8.76 46.016 8.984 47.04 9.208C48.672 9.576 49.968 9.992 50.928 10.456C51.888 10.904 52.576 11.448 52.992 12.088C53.424 12.712 53.64 13.496 53.64 14.44C53.64 15.416 53.36 16.264 52.8 16.984C52.256 17.704 51.472 18.256 50.448 18.64C49.44 19.024 48.256 19.216 46.896 19.216ZM60.0833 4.72H54.2513C54.2513 3.04 55.0273 2.2 56.5793 2.2H68.7713C68.7713 3.032 68.5713 3.664 68.1713 4.096C67.7873 4.512 67.2113 4.72 66.4433 4.72H62.9633V17.008C62.9633 17.712 62.7153 18.256 62.2193 18.64C61.7233 19.024 61.0113 19.216 60.0833 19.216V4.72ZM77.8442 19.216C76.5162 19.216 75.3242 18.952 74.2682 18.424C73.2122 17.88 72.3802 17.136 71.7722 16.192C71.1802 15.248 70.8842 14.184 70.8842 13V4.192C70.8842 3.472 71.1242 2.928 71.6042 2.56C72.1002 2.176 72.8202 1.984 73.7642 1.984V13C73.7642 14.12 74.1322 15.016 74.8682 15.688C75.6202 16.344 76.6122 16.672 77.8442 16.672C79.0602 16.672 80.0362 16.336 80.7722 15.664C81.5242 14.992 81.9002 14.104 81.9002 13V4.192C81.9002 3.472 82.1402 2.928 82.6202 2.56C83.1162 2.176 83.8362 1.984 84.7802 1.984V13C84.7802 14.184 84.4762 15.248 83.8682 16.192C83.2762 17.136 82.4522 17.88 81.3962 18.424C80.3402 18.952 79.1562 19.216 77.8442 19.216ZM89.1557 19C88.7397 19 88.3877 18.872 88.0997 18.616C87.8277 18.36 87.6917 18.04 87.6917 17.656V3.52C87.6917 3.152 87.8277 2.84 88.0997 2.584C88.3877 2.328 88.7397 2.2 89.1557 2.2H94.5797C95.9717 2.2 97.2037 2.464 98.2757 2.992C99.3637 3.52 100.204 4.264 100.796 5.224C101.388 6.184 101.684 7.288 101.684 8.536V12.592C101.684 13.84 101.38 14.952 100.772 15.928C100.18 16.888 99.3397 17.64 98.2517 18.184C97.1797 18.728 95.9557 19 94.5797 19H89.1557ZM94.3397 16.504C95.7637 16.504 96.8597 16.168 97.6277 15.496C98.4117 14.824 98.8037 13.872 98.8037 12.64V8.512C98.8037 7.28 98.4197 6.336 97.6517 5.68C96.8837 5.024 95.7797 4.696 94.3397 4.696H90.5717V16.504H94.3397ZM104.356 3.52C104.356 3.152 104.492 2.84 104.764 2.584C105.052 2.328 105.404 2.2 105.82 2.2H116.5C116.5 3.064 116.34 3.696 116.02 4.096C115.716 4.496 115.22 4.696 114.532 4.696H107.236V9.28H113.74C113.74 10.144 113.58 10.776 113.26 11.176C112.956 11.576 112.468 11.776 111.796 11.776H107.236V16.504H115.036C115.708 16.504 116.196 16.704 116.5 17.104C116.82 17.504 116.98 18.136 116.98 19H105.82C105.404 19 105.052 18.872 104.764 18.616C104.492 18.36 104.356 18.04 104.356 17.656V3.52ZM119.45 4.336C119.45 3.6 119.682 3.024 120.146 2.608C120.626 2.192 121.282 1.984 122.114 1.984L130.609 15.16L130.826 14.968L129.938 13.504V1.984C130.882 1.984 131.594 2.168 132.074 2.536C132.554 2.904 132.794 3.456 132.794 4.192V17.152C132.794 17.712 132.57 18.2 132.122 18.616C131.674 19.016 131.13 19.216 130.49 19.216L121.634 5.488L121.418 5.656L122.306 7.144V17.008C122.306 17.728 122.058 18.28 121.562 18.664C121.082 19.032 120.378 19.216 119.45 19.216V4.336ZM140.24 4.72H134.408C134.408 3.04 135.184 2.2 136.736 2.2H148.928C148.928 3.032 148.728 3.664 148.328 4.096C147.944 4.512 147.368 4.72 146.6 4.72H143.12V17.008C143.12 17.712 142.872 18.256 142.376 18.64C141.88 19.024 141.168 19.216 140.24 19.216V4.72ZM156.466 19.216C155.058 19.216 153.834 19.032 152.794 18.664C151.754 18.296 150.954 17.792 150.394 17.152C149.85 16.512 149.578 15.776 149.578 14.944C149.578 13.648 150.394 13 152.026 13C152.058 14.264 152.458 15.224 153.226 15.88C154.01 16.536 155.106 16.864 156.514 16.864C157.746 16.864 158.698 16.656 159.37 16.24C160.042 15.824 160.378 15.224 160.378 14.44C160.378 13.944 160.25 13.544 159.994 13.24C159.738 12.92 159.306 12.64 158.698 12.4C158.09 12.144 157.21 11.888 156.058 11.632C154.522 11.296 153.306 10.904 152.41 10.456C151.53 10.008 150.89 9.472 150.49 8.848C150.09 8.224 149.89 7.448 149.89 6.52C149.89 5.624 150.154 4.832 150.682 4.144C151.21 3.456 151.954 2.928 152.914 2.56C153.874 2.176 154.986 1.984 156.25 1.984C157.45 1.984 158.53 2.152 159.49 2.488C160.45 2.808 161.202 3.264 161.746 3.856C162.29 4.448 162.562 5.128 162.562 5.896C162.562 7 161.786 7.576 160.234 7.624C160.106 6.472 159.722 5.632 159.082 5.104C158.458 4.576 157.514 4.312 156.25 4.312C155.13 4.312 154.266 4.504 153.658 4.888C153.05 5.272 152.746 5.816 152.746 6.52C152.746 7 152.858 7.4 153.082 7.72C153.322 8.024 153.714 8.296 154.258 8.536C154.802 8.76 155.586 8.984 156.61 9.208C158.242 9.576 159.538 9.992 160.498 10.456C161.458 10.904 162.146 11.448 162.562 12.088C162.994 12.712 163.21 13.496 163.21 14.44C163.21 15.416 162.93 16.264 162.37 16.984C161.826 17.704 161.042 18.256 160.018 18.64C159.01 19.024 157.826 19.216 156.466 19.216Z" fill="black"/>
</svg>
