<svg width="163" height="29" viewBox="0 0 163 29" fill="none" xmlns="http://www.w3.org/2000/svg">
<path d="M47.896 24.216C46.488 24.216 45.264 24.032 44.224 23.664C43.184 23.296 42.384 22.792 41.824 22.152C41.28 21.512 41.008 20.776 41.008 19.944C41.008 18.648 41.824 18 43.456 18C43.488 19.264 43.888 20.224 44.656 20.88C45.44 21.536 46.536 21.864 47.944 21.864C49.176 21.864 50.128 21.656 50.8 21.24C51.472 20.824 51.808 20.224 51.808 19.44C51.808 18.944 51.68 18.544 51.424 18.24C51.168 17.92 50.736 17.64 50.128 17.4C49.52 17.144 48.64 16.888 47.488 16.632C45.952 16.296 44.736 15.904 43.84 15.456C42.96 15.008 42.32 14.472 41.92 13.848C41.52 13.224 41.32 12.448 41.32 11.52C41.32 10.624 41.584 9.832 42.112 9.144C42.64 8.456 43.384 7.928 44.344 7.56C45.304 7.176 46.416 6.984 47.68 6.984C48.88 6.984 49.96 7.152 50.92 7.488C51.88 7.808 52.632 8.264 53.176 8.856C53.72 9.448 53.992 10.128 53.992 10.896C53.992 12 53.216 12.576 51.664 12.624C51.536 11.472 51.152 10.632 50.512 10.104C49.888 9.576 48.944 9.312 47.68 9.312C46.56 9.312 45.696 9.504 45.088 9.888C44.48 10.272 44.176 10.816 44.176 11.52C44.176 12 44.288 12.4 44.512 12.72C44.752 13.024 45.144 13.296 45.688 13.536C46.232 13.76 47.016 13.984 48.04 14.208C49.672 14.576 50.968 14.992 51.928 15.456C52.888 15.904 53.576 16.448 53.992 17.088C54.424 17.712 54.64 18.496 54.64 19.44C54.64 20.416 54.36 21.264 53.8 21.984C53.256 22.704 52.472 23.256 51.448 23.64C50.44 24.024 49.256 24.216 47.896 24.216ZM61.0917 17.952L55.1397 7.296C55.2837 7.216 55.4997 7.144 55.7877 7.08C56.0757 7.016 56.3397 6.984 56.5797 6.984C57.1077 6.984 57.5477 7.096 57.8997 7.32C58.2677 7.528 58.5797 7.864 58.8357 8.328L62.4837 15.144L61.8597 16.392L62.0997 16.512L66.2517 8.328C66.6997 7.432 67.4517 6.984 68.5077 6.984C68.7477 6.984 69.0117 7.016 69.2997 7.08C69.5877 7.144 69.8037 7.216 69.9477 7.296L63.9957 17.952V22.008C63.9957 22.712 63.7477 23.256 63.2517 23.64C62.7557 24.024 62.0357 24.216 61.0917 24.216V17.952ZM73.9381 24C73.5221 24 73.1621 23.848 72.8581 23.544C72.5701 23.24 72.4261 22.88 72.4261 22.464V9.192C72.4261 8.44 72.6581 7.888 73.1221 7.536C73.6021 7.168 74.3301 6.984 75.3061 6.984V21.48H82.0981C82.7861 21.48 83.3061 21.696 83.6581 22.128C84.0261 22.544 84.2101 23.168 84.2101 24H73.9381ZM87.9537 24C87.5377 24 87.1777 23.848 86.8737 23.544C86.5857 23.24 86.4417 22.88 86.4417 22.464V9.192C86.4417 8.44 86.6737 7.888 87.1377 7.536C87.6177 7.168 88.3457 6.984 89.3217 6.984V21.48H96.1137C96.8017 21.48 97.3217 21.696 97.6737 22.128C98.0417 22.544 98.2257 23.168 98.2257 24H87.9537ZM101.288 24.216C100.664 24.136 100.176 23.912 99.8239 23.544C99.4719 23.16 99.2959 22.696 99.2959 22.152C99.2959 21.72 99.3999 21.288 99.6079 20.856L105.176 7.92C105.448 7.296 105.92 6.984 106.592 6.984C107.248 6.984 107.72 7.296 108.008 7.92L113.576 20.856C113.768 21.304 113.864 21.728 113.864 22.128C113.864 22.688 113.688 23.16 113.336 23.544C112.984 23.912 112.496 24.136 111.872 24.216L109.832 19.512H103.328L101.288 24.216ZM108.944 17.016L106.16 10.032L105.896 10.128L106.448 11.496L104.216 17.016H108.944ZM117.835 24C117.435 24 117.091 23.872 116.803 23.616C116.515 23.344 116.371 23.024 116.371 22.656V8.52C116.371 8.152 116.507 7.84 116.779 7.584C117.067 7.328 117.419 7.2 117.835 7.2H124.339C125.843 7.2 127.035 7.624 127.915 8.472C128.811 9.32 129.259 10.456 129.259 11.88C129.259 12.584 129.067 13.256 128.683 13.896C128.315 14.52 127.819 15 127.195 15.336V15.408C128.059 15.68 128.731 16.152 129.211 16.824C129.707 17.48 129.955 18.24 129.955 19.104C129.955 20.064 129.739 20.92 129.307 21.672C128.875 22.408 128.275 22.984 127.507 23.4C126.739 23.8 125.859 24 124.867 24H117.835ZM124.291 14.376C124.867 14.376 125.355 14.144 125.755 13.68C126.171 13.216 126.379 12.648 126.379 11.976C126.379 11.256 126.195 10.688 125.827 10.272C125.459 9.856 124.947 9.648 124.291 9.648H119.203V14.376H124.291ZM124.771 21.528C125.491 21.528 126.051 21.32 126.451 20.904C126.867 20.472 127.075 19.888 127.075 19.152C127.075 18.4 126.875 17.824 126.475 17.424C126.075 17.008 125.507 16.8 124.771 16.8H119.203V21.528H124.771ZM139.266 24.216C137.938 24.216 136.746 23.952 135.69 23.424C134.634 22.88 133.802 22.136 133.194 21.192C132.602 20.248 132.306 19.184 132.306 18V9.192C132.306 8.472 132.546 7.928 133.026 7.56C133.522 7.176 134.242 6.984 135.186 6.984V18C135.186 19.12 135.554 20.016 136.29 20.688C137.042 21.344 138.034 21.672 139.266 21.672C140.482 21.672 141.458 21.336 142.194 20.664C142.946 19.992 143.322 19.104 143.322 18V9.192C143.322 8.472 143.562 7.928 144.042 7.56C144.538 7.176 145.258 6.984 146.202 6.984V18C146.202 19.184 145.898 20.248 145.29 21.192C144.698 22.136 143.874 22.88 142.818 23.424C141.762 23.952 140.578 24.216 139.266 24.216ZM155.498 24.216C154.09 24.216 152.866 24.032 151.826 23.664C150.786 23.296 149.986 22.792 149.426 22.152C148.882 21.512 148.61 20.776 148.61 19.944C148.61 18.648 149.426 18 151.058 18C151.09 19.264 151.49 20.224 152.258 20.88C153.042 21.536 154.138 21.864 155.546 21.864C156.778 21.864 157.73 21.656 158.402 21.24C159.074 20.824 159.41 20.224 159.41 19.44C159.41 18.944 159.282 18.544 159.026 18.24C158.77 17.92 158.338 17.64 157.73 17.4C157.122 17.144 156.242 16.888 155.09 16.632C153.554 16.296 152.338 15.904 151.442 15.456C150.562 15.008 149.922 14.472 149.522 13.848C149.122 13.224 148.922 12.448 148.922 11.52C148.922 10.624 149.186 9.832 149.714 9.144C150.242 8.456 150.986 7.928 151.946 7.56C152.906 7.176 154.018 6.984 155.282 6.984C156.482 6.984 157.562 7.152 158.522 7.488C159.482 7.808 160.234 8.264 160.778 8.856C161.322 9.448 161.594 10.128 161.594 10.896C161.594 12 160.818 12.576 159.266 12.624C159.138 11.472 158.754 10.632 158.114 10.104C157.49 9.576 156.546 9.312 155.282 9.312C154.162 9.312 153.298 9.504 152.69 9.888C152.082 10.272 151.778 10.816 151.778 11.52C151.778 12 151.89 12.4 152.114 12.72C152.354 13.024 152.746 13.296 153.29 13.536C153.834 13.76 154.618 13.984 155.642 14.208C157.274 14.576 158.57 14.992 159.53 15.456C160.49 15.904 161.178 16.448 161.594 17.088C162.026 17.712 162.242 18.496 162.242 19.44C162.242 20.416 161.962 21.264 161.402 21.984C160.858 22.704 160.074 23.256 159.05 23.64C158.042 24.024 156.858 24.216 155.498 24.216Z" fill="black"/>
<path fill-rule="evenodd" clip-rule="evenodd" d="M4.34985 2.175C4.34985 1.7746 4.67445 1.45 5.07485 1.45H14.5523C14.7446 1.45 14.929 1.52639 15.0649 1.66235L24.4375 11.0349C24.5735 11.1709 24.6499 11.3553 24.6499 11.5476V26.825C24.6499 27.2254 24.3253 27.55 23.9249 27.55H5.07485C4.67445 27.55 4.34985 27.2254 4.34985 26.825V2.175ZM6.16235 3.2625V25.7375H22.8374V12.5289H14.2959C13.8955 12.5289 13.5709 12.2043 13.5709 11.8039V3.2625H6.16235ZM15.3834 4.54414L21.5557 10.7164H15.3834V4.54414Z" fill="black"/>
<path d="M9.06235 15.3156C9.06235 15.1154 9.22465 14.9531 9.42485 14.9531H19.5749C19.7751 14.9531 19.9374 15.1154 19.9374 15.3156V16.4031C19.9374 16.6033 19.7751 16.7656 19.5749 16.7656H9.42485C9.22465 16.7656 9.06235 16.6033 9.06235 16.4031V15.3156Z" fill="black"/>
<path d="M9.06235 18.5781C9.06235 18.3779 9.22465 18.2156 9.42485 18.2156H19.5749C19.7751 18.2156 19.9374 18.3779 19.9374 18.5781V19.6656C19.9374 19.8658 19.7751 20.0281 19.5749 20.0281H9.42485C9.22465 20.0281 9.06235 19.8658 9.06235 19.6656V18.5781Z" fill="black"/>
<path d="M9.06235 21.8406C9.06235 21.6404 9.22465 21.4781 9.42485 21.4781H14.1374C14.3376 21.4781 14.4999 21.6404 14.4999 21.8406V22.9281C14.4999 23.1283 14.3376 23.2906 14.1374 23.2906H9.42485C9.22465 23.2906 9.06235 23.1283 9.06235 22.9281V21.8406Z" fill="black"/>
</svg>
