<svg width="109" height="29" viewBox="0 0 109 29" fill="none" xmlns="http://www.w3.org/2000/svg">
<path d="M47.52 23.216C46.816 23.216 46.344 22.896 46.104 22.256L39.96 6.272C40.104 6.192 40.296 6.128 40.536 6.08C40.776 6.016 41 5.984 41.208 5.984C41.768 5.984 42.232 6.112 42.6 6.368C42.984 6.608 43.264 6.96 43.44 7.424L47.352 18.392L46.848 19.832L47.088 19.928L51.576 7.424C51.944 6.464 52.696 5.984 53.832 5.984C54.024 5.984 54.232 6.016 54.456 6.08C54.696 6.128 54.896 6.192 55.056 6.272L48.936 22.256C48.824 22.56 48.64 22.8 48.384 22.976C48.144 23.136 47.856 23.216 47.52 23.216ZM58.0076 8.192C58.0076 7.488 58.2556 6.944 58.7516 6.56C59.2636 6.176 59.9756 5.984 60.8876 5.984V20.984C60.8876 21.688 60.6396 22.24 60.1436 22.64C59.6476 23.024 58.9356 23.216 58.0076 23.216V8.192ZM65.8588 23C65.4428 23 65.0908 22.872 64.8028 22.616C64.5308 22.36 64.3948 22.04 64.3948 21.656V7.52C64.3948 7.152 64.5308 6.84 64.8028 6.584C65.0908 6.328 65.4428 6.2 65.8588 6.2H71.2828C72.6748 6.2 73.9068 6.464 74.9788 6.992C76.0668 7.52 76.9068 8.264 77.4988 9.224C78.0908 10.184 78.3868 11.288 78.3868 12.536V16.592C78.3868 17.84 78.0828 18.952 77.4748 19.928C76.8828 20.888 76.0428 21.64 74.9548 22.184C73.8828 22.728 72.6588 23 71.2828 23H65.8588ZM71.0428 20.504C72.4668 20.504 73.5628 20.168 74.3308 19.496C75.1148 18.824 75.5068 17.872 75.5068 16.64V12.512C75.5068 11.28 75.1228 10.336 74.3548 9.68C73.5868 9.024 72.4828 8.696 71.0428 8.696H67.2748V20.504H71.0428ZM81.0589 7.52C81.0589 7.152 81.1949 6.84 81.4669 6.584C81.7549 6.328 82.1069 6.2 82.5229 6.2H93.2029C93.2029 7.064 93.0429 7.696 92.7229 8.096C92.4189 8.496 91.9229 8.696 91.2349 8.696H83.9389V13.28H90.4429C90.4429 14.144 90.2829 14.776 89.9629 15.176C89.6589 15.576 89.1709 15.776 88.4989 15.776H83.9389V20.504H91.7389C92.4109 20.504 92.8989 20.704 93.2029 21.104C93.5229 21.504 93.6829 22.136 93.6829 23H82.5229C82.1069 23 81.7549 22.872 81.4669 22.616C81.1949 22.36 81.0589 22.04 81.0589 21.656V7.52ZM101.603 23.216C100.291 23.216 99.0905 22.952 98.0025 22.424C96.9305 21.896 96.0825 21.184 95.4585 20.288C94.8345 19.392 94.5225 18.408 94.5225 17.336V11.84C94.5225 10.768 94.8265 9.784 95.4345 8.888C96.0585 7.992 96.9065 7.288 97.9785 6.776C99.0665 6.248 100.275 5.984 101.603 5.984C102.931 5.984 104.131 6.248 105.203 6.776C106.291 7.288 107.139 7.992 107.747 8.888C108.371 9.784 108.683 10.768 108.683 11.84V17.336C108.683 18.408 108.371 19.392 107.747 20.288C107.123 21.184 106.267 21.896 105.179 22.424C104.107 22.952 102.915 23.216 101.603 23.216ZM101.603 20.696C102.883 20.696 103.899 20.384 104.651 19.76C105.419 19.136 105.803 18.312 105.803 17.288V11.888C105.803 10.864 105.419 10.048 104.651 9.44C103.899 8.816 102.883 8.504 101.603 8.504C100.323 8.504 99.2985 8.816 98.5305 9.44C97.7785 10.048 97.4025 10.864 97.4025 11.888V17.288C97.4025 18.312 97.7785 19.136 98.5305 19.76C99.2985 20.384 100.323 20.696 101.603 20.696Z" fill="black"/>
<path fill-rule="evenodd" clip-rule="evenodd" d="M1.3999 5.07501C1.3999 4.6746 1.7133 4.35001 2.0999 4.35001H25.8999C26.2865 4.35001 26.5999 4.6746 26.5999 5.07501V23.925C26.5999 24.3254 26.2865 24.65 25.8999 24.65H2.0999C1.7133 24.65 1.3999 24.3254 1.3999 23.925V5.07501ZM3.1499 6.16251V9.78751H24.8499V6.16251H3.1499ZM24.8499 11.6H18.7687V22.8375H24.8499V11.6ZM17.0187 22.8375V11.6H10.9812V22.8375H17.0187ZM9.23115 22.8375V11.6H3.1499V22.8375H9.23115Z" fill="black"/>
</svg>
