<svg width="300"  viewBox="0 0 412 100" fill="none" xmlns="http://www.w3.org/2000/svg">
<path d="M101.745 89.9843C101.745 89.7623 101.827 89.5741 101.991 89.4197C102.164 89.2653 102.377 89.1881 102.628 89.1881H109.07C109.07 89.7092 108.973 90.0904 108.78 90.3317C108.597 90.573 108.298 90.6936 107.883 90.6936H103.482V93.4586H107.405C107.405 93.9797 107.308 94.361 107.115 94.6022C106.932 94.8435 106.638 94.9641 106.232 94.9641H103.482V97.816H108.187C108.592 97.816 108.886 97.9366 109.07 98.1779C109.263 98.4192 109.359 98.8004 109.359 99.3215H102.628C102.377 99.3215 102.164 99.2443 101.991 99.0899C101.827 98.9355 101.745 98.7425 101.745 98.5109V89.9843ZM118.675 99.4518C117.826 99.4518 117.087 99.3408 116.46 99.1189C115.833 98.8969 115.35 98.5929 115.012 98.2069C114.684 97.8208 114.52 97.3769 114.52 96.875C114.52 96.0933 115.012 95.7024 115.997 95.7024C116.016 96.4649 116.257 97.0439 116.721 97.4396C117.194 97.8353 117.855 98.0331 118.704 98.0331C119.447 98.0331 120.021 97.9077 120.427 97.6567C120.832 97.4058 121.035 97.0439 121.035 96.571C121.035 96.2718 120.957 96.0306 120.803 95.8472C120.649 95.6542 120.388 95.4853 120.021 95.3405C119.655 95.1861 119.124 95.0317 118.429 94.8773C117.502 94.6746 116.769 94.4382 116.229 94.1679C115.698 93.8977 115.312 93.5744 115.07 93.198C114.829 92.8216 114.708 92.3536 114.708 91.7938C114.708 91.2534 114.868 90.7756 115.186 90.3606C115.505 89.9457 115.953 89.6272 116.533 89.4052C117.112 89.1736 117.782 89.0578 118.545 89.0578C119.269 89.0578 119.92 89.1591 120.499 89.3618C121.078 89.5548 121.532 89.8298 121.86 90.1869C122.188 90.544 122.352 90.9542 122.352 91.4174C122.352 92.0833 121.884 92.4308 120.948 92.4597C120.871 91.7649 120.639 91.2582 120.253 90.9397C119.877 90.6212 119.307 90.462 118.545 90.462C117.869 90.462 117.348 90.5778 116.981 90.8094C116.615 91.041 116.431 91.3692 116.431 91.7938C116.431 92.0833 116.499 92.3246 116.634 92.5176C116.779 92.701 117.015 92.8651 117.343 93.0098C117.671 93.1449 118.144 93.2801 118.762 93.4152C119.746 93.6371 120.528 93.8881 121.107 94.1679C121.686 94.4382 122.101 94.7663 122.352 95.1523C122.613 95.5287 122.743 96.0016 122.743 96.571C122.743 97.1597 122.574 97.6712 122.236 98.1055C121.908 98.5398 121.435 98.8728 120.818 99.1044C120.21 99.336 119.495 99.4518 118.675 99.4518ZM130.972 90.7081H127.454C127.454 89.6947 127.923 89.1881 128.859 89.1881H136.213C136.213 89.6899 136.092 90.0711 135.851 90.3317C135.619 90.5826 135.272 90.7081 134.809 90.7081H132.709V98.12C132.709 98.5446 132.56 98.8728 132.261 99.1044C131.961 99.336 131.532 99.4518 130.972 99.4518V90.7081ZM141.174 99.4518C140.797 99.4036 140.503 99.2685 140.291 99.0465C140.078 98.8149 139.972 98.535 139.972 98.2069C139.972 97.9463 140.035 97.6857 140.16 97.4251L143.519 89.6224C143.683 89.246 143.968 89.0578 144.373 89.0578C144.769 89.0578 145.053 89.246 145.227 89.6224L148.585 97.4251C148.701 97.6954 148.759 97.9511 148.759 98.1924C148.759 98.5302 148.653 98.8149 148.441 99.0465C148.228 99.2685 147.934 99.4036 147.558 99.4518L146.327 96.6144H142.404L141.174 99.4518ZM145.792 95.1089L144.112 90.8963L143.953 90.9542L144.286 91.7793L142.94 95.1089H145.792ZM155.498 99.3215C155.256 99.3215 155.049 99.2443 154.875 99.0899C154.701 98.9258 154.615 98.7328 154.615 98.5109V89.9843C154.615 89.7623 154.697 89.5741 154.861 89.4197C155.034 89.2653 155.247 89.1881 155.498 89.1881H159.421C160.328 89.1881 161.047 89.4438 161.578 89.9553C162.118 90.4668 162.388 91.152 162.388 92.011C162.388 92.4356 162.273 92.8409 162.041 93.227C161.819 93.6034 161.52 93.8929 161.143 94.0956V94.139C161.665 94.3031 162.07 94.5878 162.359 94.9931C162.659 95.3888 162.808 95.8472 162.808 96.3683C162.808 96.9474 162.678 97.4637 162.417 97.9173C162.157 98.3613 161.795 98.7087 161.332 98.9596C160.868 99.2009 160.338 99.3215 159.739 99.3215H155.498ZM159.392 93.5165C159.739 93.5165 160.034 93.3766 160.275 93.0967C160.526 92.8168 160.651 92.4742 160.651 92.0689C160.651 91.6346 160.54 91.292 160.318 91.041C160.096 90.7901 159.787 90.6647 159.392 90.6647H156.323V93.5165H159.392ZM159.681 97.8305C160.116 97.8305 160.453 97.705 160.695 97.4541C160.946 97.1935 161.071 96.8412 161.071 96.3973C161.071 95.9437 160.95 95.5963 160.709 95.355C160.468 95.1041 160.125 94.9786 159.681 94.9786H156.323V97.8305H159.681ZM169.553 99.3215C169.302 99.3215 169.085 99.2298 168.902 99.0465C168.728 98.8631 168.641 98.646 168.641 98.395V90.3896C168.641 89.936 168.781 89.6031 169.061 89.3907C169.351 89.1688 169.79 89.0578 170.379 89.0578V97.8015H174.475C174.89 97.8015 175.204 97.9318 175.416 98.1924C175.638 98.4433 175.749 98.8197 175.749 99.3215H169.553ZM181.728 90.3896C181.728 89.965 181.877 89.6368 182.177 89.4052C182.485 89.1736 182.915 89.0578 183.465 89.0578V98.1055C183.465 98.5302 183.315 98.8631 183.016 99.1044C182.717 99.336 182.288 99.4518 181.728 99.4518V90.3896ZM193.774 99.4518C192.925 99.4518 192.187 99.3408 191.559 99.1189C190.932 98.8969 190.449 98.5929 190.112 98.2069C189.783 97.8208 189.619 97.3769 189.619 96.875C189.619 96.0933 190.112 95.7024 191.096 95.7024C191.115 96.4649 191.357 97.0439 191.82 97.4396C192.293 97.8353 192.954 98.0331 193.803 98.0331C194.546 98.0331 195.12 97.9077 195.526 97.6567C195.931 97.4058 196.134 97.0439 196.134 96.571C196.134 96.2718 196.057 96.0306 195.902 95.8472C195.748 95.6542 195.487 95.4853 195.12 95.3405C194.754 95.1861 194.223 95.0317 193.528 94.8773C192.602 94.6746 191.868 94.4382 191.328 94.1679C190.797 93.8977 190.411 93.5744 190.169 93.198C189.928 92.8216 189.808 92.3536 189.808 91.7938C189.808 91.2534 189.967 90.7756 190.285 90.3606C190.604 89.9457 191.053 89.6272 191.632 89.4052C192.211 89.1736 192.881 89.0578 193.644 89.0578C194.368 89.0578 195.019 89.1591 195.598 89.3618C196.177 89.5548 196.631 89.8298 196.959 90.1869C197.287 90.544 197.451 90.9542 197.451 91.4174C197.451 92.0833 196.983 92.4308 196.047 92.4597C195.97 91.7649 195.738 91.2582 195.352 90.9397C194.976 90.6212 194.406 90.462 193.644 90.462C192.968 90.462 192.447 90.5778 192.08 90.8094C191.714 91.041 191.53 91.3692 191.53 91.7938C191.53 92.0833 191.598 92.3246 191.733 92.5176C191.878 92.701 192.114 92.8651 192.442 93.0098C192.77 93.1449 193.243 93.2801 193.861 93.4152C194.845 93.6371 195.627 93.8881 196.206 94.1679C196.785 94.4382 197.2 94.7663 197.451 95.1523C197.712 95.5287 197.842 96.0016 197.842 96.571C197.842 97.1597 197.673 97.6712 197.335 98.1055C197.007 98.5398 196.534 98.8728 195.917 99.1044C195.309 99.336 194.594 99.4518 193.774 99.4518ZM203.682 90.3896C203.682 89.9746 203.836 89.6465 204.145 89.4052C204.463 89.1639 204.888 89.0433 205.419 89.0433L208.618 96.9474L208.3 97.7726L208.43 97.8305L211.846 89.0578C212.387 89.0578 212.811 89.1784 213.12 89.4197C213.439 89.661 213.598 89.9891 213.598 90.4041V99.4518C212.459 99.4518 211.89 99.0127 211.89 98.1345V93.0098L212.338 91.7938L212.194 91.7504L209.342 98.9741C209.284 99.1092 209.192 99.225 209.067 99.3215C208.941 99.4084 208.801 99.4518 208.647 99.4518C208.483 99.4518 208.333 99.4084 208.198 99.3215C208.073 99.2347 207.981 99.114 207.923 98.9596L205.086 91.7214L204.941 91.7793L205.39 92.9954V98.1345C205.39 99.0127 204.82 99.4518 203.682 99.4518V90.3896ZM219.744 89.9843C219.744 89.7623 219.826 89.5741 219.99 89.4197C220.164 89.2653 220.376 89.1881 220.627 89.1881H227.069C227.069 89.7092 226.973 90.0904 226.78 90.3317C226.596 90.573 226.297 90.6936 225.882 90.6936H221.481V93.4586H225.404C225.404 93.9797 225.308 94.361 225.115 94.6022C224.932 94.8435 224.637 94.9641 224.232 94.9641H221.481V97.816H226.186C226.592 97.816 226.886 97.9366 227.069 98.1779C227.262 98.4192 227.359 98.8004 227.359 99.3215H220.627C220.376 99.3215 220.164 99.2443 219.99 99.0899C219.826 98.9355 219.744 98.7425 219.744 98.5109V89.9843ZM234.074 99.3215C233.824 99.3215 233.611 99.2443 233.437 99.0899C233.273 98.9355 233.191 98.7425 233.191 98.5109V89.9843C233.191 89.7623 233.273 89.5741 233.437 89.4197C233.611 89.2653 233.824 89.1881 234.074 89.1881H237.346C238.186 89.1881 238.929 89.3473 239.575 89.6658C240.232 89.9843 240.738 90.433 241.095 91.0121C241.453 91.5911 241.631 92.2571 241.631 93.0098V95.4563C241.631 96.2091 241.448 96.8798 241.081 97.4686C240.724 98.0476 240.217 98.5012 239.561 98.8293C238.914 99.1575 238.176 99.3215 237.346 99.3215H234.074ZM237.201 97.816C238.06 97.816 238.721 97.6133 239.185 97.208C239.658 96.8026 239.894 96.2284 239.894 95.4853V92.9954C239.894 92.2522 239.662 91.6828 239.199 91.2871C238.736 90.8914 238.07 90.6936 237.201 90.6936H234.929V97.816H237.201ZM256.139 99.3215C255.897 99.3215 255.7 99.254 255.545 99.1189C255.4 98.9741 255.328 98.7907 255.328 98.5688C255.328 97.816 255.617 97.1259 256.197 96.4986C256.785 95.8617 257.712 95.244 258.976 94.6457C259.613 94.3368 260.095 94.0666 260.424 93.835C260.761 93.5937 260.998 93.3476 261.133 93.0967C261.268 92.8458 261.336 92.5418 261.336 92.1847C261.336 91.6732 261.162 91.2823 260.814 91.0121C260.477 90.7322 259.989 90.5923 259.352 90.5923C258.638 90.5923 258.093 90.7467 257.717 91.0555C257.34 91.3643 257.152 91.8179 257.152 92.4163C257.152 92.6576 257.171 92.8699 257.21 93.0533C257.075 93.0726 256.969 93.0822 256.891 93.0822C256.486 93.0822 256.139 92.9616 255.849 92.7203C255.56 92.479 255.415 92.1847 255.415 91.8372C255.415 91.3161 255.589 90.8432 255.936 90.4186C256.283 89.9939 256.756 89.661 257.355 89.4197C257.953 89.1784 258.619 89.0578 259.352 89.0578C260.105 89.0578 260.761 89.1881 261.321 89.4486C261.891 89.6996 262.33 90.0615 262.639 90.5344C262.947 91.0073 263.102 91.5574 263.102 92.1847C263.102 92.8892 262.841 93.5262 262.32 94.0956C261.809 94.665 260.993 95.2199 259.874 95.7603C259.034 96.1657 258.407 96.5372 257.992 96.875C257.577 97.2032 257.345 97.5168 257.297 97.816H261.9C262.344 97.816 262.677 97.9463 262.899 98.2069C263.131 98.4578 263.247 98.8293 263.247 99.3215H256.139ZM272.974 99.4518C272.241 99.4518 271.565 99.3119 270.947 99.032C270.339 98.7425 269.857 98.3516 269.5 97.8594C269.143 97.3672 268.964 96.8219 268.964 96.2236V92.286C268.964 91.6877 269.143 91.1424 269.5 90.6502C269.857 90.158 270.339 89.7719 270.947 89.4921C271.565 89.2025 272.241 89.0578 272.974 89.0578C273.717 89.0578 274.393 89.2025 275.001 89.4921C275.618 89.7719 276.101 90.158 276.448 90.6502C276.805 91.1424 276.984 91.6877 276.984 92.286V96.2236C276.984 96.8219 276.805 97.3672 276.448 97.8594C276.091 98.3516 275.604 98.7425 274.986 99.032C274.378 99.3119 273.707 99.4518 272.974 99.4518ZM272.974 97.9173C273.659 97.9173 274.209 97.7581 274.624 97.4396C275.039 97.1211 275.247 96.6965 275.247 96.1657V92.3294C275.247 91.8083 275.039 91.3885 274.624 91.07C274.209 90.7515 273.659 90.5923 272.974 90.5923C272.298 90.5923 271.753 90.7515 271.338 91.07C270.923 91.3885 270.716 91.8083 270.716 92.3294V96.1657C270.716 96.6965 270.918 97.1211 271.324 97.4396C271.739 97.7581 272.289 97.9173 272.974 97.9173ZM284.57 90.6936H283.789C283.412 90.6936 283.113 90.5585 282.891 90.2883C282.669 90.0084 282.558 89.6417 282.558 89.1881H285.511C285.733 89.1881 285.922 89.2604 286.076 89.4052C286.24 89.55 286.322 89.7285 286.322 89.9408V98.12C286.322 98.5446 286.173 98.8728 285.873 99.1044C285.574 99.336 285.14 99.4518 284.57 99.4518V90.6936ZM297.172 96.8171H292.8C292.568 96.8171 292.385 96.7544 292.25 96.6289C292.115 96.5035 292.047 96.3394 292.047 96.1367C292.047 95.9341 292.11 95.7555 292.235 95.6011L297.403 89.3328C297.471 89.246 297.572 89.1784 297.707 89.1302C297.842 89.0819 297.992 89.0578 298.156 89.0578C298.388 89.0578 298.571 89.1302 298.706 89.2749C298.851 89.4197 298.923 89.6031 298.923 89.825V95.3116H300.603C300.603 95.8327 300.511 96.2139 300.328 96.4552C300.144 96.6965 299.855 96.8171 299.459 96.8171H298.923V98.2792C298.923 98.6846 298.779 98.9838 298.489 99.1768C298.209 99.3601 297.77 99.4518 297.172 99.4518V96.8171ZM297.273 95.3116V91.9675L297.765 91.3016L297.664 91.2292L294.363 95.3116H297.273Z" fill="black"/>
<path d="M5.5657 3.66054C5.72558 2.73326 6.2052 1.96586 7.00458 1.35833C7.80396 0.750806 8.69926 0.447043 9.69049 0.447043H22.6404C24.5589 0.447043 26.3015 0.846732 27.8683 1.64611C29.4351 2.41351 30.6661 3.48468 31.5614 4.8596C32.4567 6.20256 32.9044 7.72137 32.9044 9.41605C32.9044 13.7007 31.6893 17.0421 29.2592 19.4402C26.8291 21.8384 23.4398 23.0374 19.0912 23.0374H9.21086L8.10772 29.3685C7.81995 31.0312 6.98859 32.2942 5.61367 33.1575C4.27071 34.0209 2.44813 34.4525 0.145927 34.4525L5.5657 3.66054ZM19.7147 16.9462C21.7611 16.9462 23.2799 16.4186 24.2711 15.3634C25.2624 14.2763 25.758 12.6136 25.758 10.3753C25.758 9.16025 25.3903 8.21699 24.6548 7.54551C23.9514 6.87403 22.9282 6.5383 21.5852 6.5383H12.1366L10.266 16.9462H19.7147ZM38.5868 3.66054C38.7467 2.73326 39.2263 1.96586 40.0257 1.35833C40.8251 0.750806 41.7204 0.447043 42.7116 0.447043H55.2778C58.3474 0.447043 60.6976 1.1505 62.3283 2.5574C63.991 3.93233 64.8224 5.91478 64.8224 8.50476C64.8224 10.9668 64.2948 13.0772 63.2396 14.8358C62.1844 16.5945 60.6337 17.9214 58.5872 18.8167V19.0086C60.6656 20.0638 61.7048 21.7904 61.7048 24.1885C61.7048 24.5403 61.6409 25.1638 61.513 26.0591L60.9374 29.3685C60.6496 31.0312 59.8183 32.2942 58.4434 33.1575C57.1004 34.0209 55.2778 34.4525 52.9756 34.4525L54.4145 26.2989C54.5104 25.7233 54.5584 25.1798 54.5584 24.6682C54.5584 23.645 54.3026 22.8935 53.791 22.4139C53.2794 21.9023 52.496 21.6465 51.4408 21.6465H42.3759L41.0329 29.3685C40.7452 31.0312 39.9298 32.2942 38.5868 33.1575C37.2759 34.0209 35.4693 34.4525 33.1671 34.4525L38.5868 3.66054ZM52.2082 15.6512C53.8709 15.6512 55.1979 15.1076 56.1891 14.0205C57.1803 12.9333 57.676 11.4625 57.676 9.6079C57.676 7.49755 56.397 6.44237 53.8389 6.44237H45.0618L43.4311 15.6512H52.2082ZM69.3751 34.4525C68.0002 34.3246 66.929 33.909 66.1616 33.2055C65.4262 32.4701 65.0585 31.5588 65.0585 30.4716C65.0585 29.2246 65.5061 27.8976 66.4014 26.4907L81.6056 2.36555C82.1491 1.5342 82.7247 0.942657 83.3322 0.590932C83.9397 0.20723 84.6432 0.0153796 85.4426 0.0153796C87.0733 0.0153796 88.0965 0.798769 88.5122 2.36555L95.083 26.4907C95.2749 27.2581 95.3708 27.9776 95.3708 28.6491C95.3708 30.2798 94.8592 31.6227 93.836 32.6779C92.8448 33.7011 91.4859 34.2927 89.7592 34.4525L87.3611 25.6754H74.9387L69.3751 34.4525ZM86.162 19.6321L83.3802 7.35366L82.6607 7.64144L83.3802 10.8549L78.1043 19.6321H86.162ZM102.385 34.0209C101.522 34.0209 100.802 33.7651 100.227 33.2535C99.6511 32.7099 99.3633 32.0544 99.3633 31.287C99.3633 31.0632 99.3793 30.9033 99.4113 30.8074L104.208 3.66054C104.367 2.76524 104.847 2.01382 105.646 1.4063C106.446 0.766795 107.341 0.447043 108.332 0.447043H121.042C123.856 0.447043 126.047 1.13451 127.613 2.50944C129.212 3.85239 130.011 5.70694 130.011 8.0731C130.011 9.83173 129.532 11.5104 128.573 13.1092C127.613 14.676 126.334 15.875 124.736 16.7064L124.688 16.8982C125.999 17.4098 127.022 18.1772 127.757 19.2004C128.493 20.1917 128.86 21.3747 128.86 22.7497C128.86 24.7321 128.269 26.6027 127.086 28.3613C125.935 30.0879 124.368 31.4629 122.385 32.4861C120.403 33.5093 118.277 34.0209 116.006 34.0209H102.385ZM118.5 14.3082C119.62 14.3082 120.611 13.8126 121.474 12.8214C122.369 11.7982 122.817 10.6311 122.817 9.32013C122.817 8.39285 122.561 7.67341 122.05 7.16181C121.538 6.65021 120.819 6.39441 119.891 6.39441H110.587L109.196 14.3082H118.5ZM117.014 28.0735C118.389 28.0735 119.524 27.6099 120.419 26.6826C121.314 25.7553 121.762 24.5722 121.762 23.1334C121.762 22.1741 121.474 21.4387 120.899 20.9271C120.323 20.4155 119.492 20.1597 118.404 20.1597H108.14L106.75 28.0735H117.014ZM136.427 5.09942C136.715 3.43671 137.53 2.1737 138.873 1.31037C140.216 0.447043 142.054 0.0153796 144.389 0.0153796L141.895 14.0684H155.324L156.907 5.09942C157.195 3.43671 158.01 2.1737 159.353 1.31037C160.728 0.447043 162.566 0.0153796 164.869 0.0153796L159.689 29.3685C159.401 31.0312 158.57 32.2942 157.195 33.1575C155.852 34.0209 154.029 34.4525 151.727 34.4525L154.269 20.1597H140.839L139.209 29.3685C138.921 31.0312 138.09 32.2942 136.715 33.1575C135.372 34.0209 133.549 34.4525 131.247 34.4525L136.427 5.09942ZM178.182 34.4525C175.784 34.4525 173.657 33.9889 171.803 33.0616C169.948 32.1343 168.493 30.8553 167.438 29.2246C166.415 27.5619 165.903 25.7074 165.903 23.6609C165.903 22.8616 165.967 22.1421 166.095 21.5026L168.973 5.09942C169.261 3.43671 170.076 2.1737 171.419 1.31037C172.794 0.447043 174.632 0.0153796 176.935 0.0153796L173.146 21.5026C173.05 22.0142 173.002 22.5258 173.002 23.0374C173.002 24.7321 173.545 26.0431 174.632 26.9704C175.72 27.8657 177.27 28.3133 179.285 28.3133C181.683 28.3133 183.601 27.7378 185.04 26.5867C186.511 25.4356 187.438 23.7409 187.822 21.5026L190.7 5.09942C190.988 3.43671 191.803 2.1737 193.146 1.31037C194.521 0.447043 196.359 0.0153796 198.662 0.0153796L194.873 21.5026C194.137 25.5954 192.299 28.777 189.357 31.0472C186.447 33.3174 182.722 34.4525 178.182 34.4525ZM215.209 5.24331C215.497 3.5806 216.328 2.3016 217.703 1.4063C219.11 0.479019 220.949 0.0153796 223.219 0.0153796L220.533 14.9797L238.711 0.0153796C239.414 0.495007 239.974 1.10253 240.39 1.83796C240.837 2.57339 241.061 3.26085 241.061 3.90035C241.061 4.50788 240.837 5.06744 240.39 5.57904C239.942 6.05867 239.222 6.69817 238.231 7.49755L227.679 16.0349L237.56 32.1983C236.249 33.7011 234.746 34.4525 233.051 34.4525C231.389 34.4525 230.189 33.829 229.454 32.582L222.212 20.3515L219.142 22.9895L217.991 29.6083C217.703 31.271 216.92 32.5021 215.641 33.3014C214.394 34.0688 212.539 34.4525 210.077 34.4525L215.209 5.24331ZM243.848 34.4525C242.474 34.3246 241.402 33.909 240.635 33.2055C239.9 32.4701 239.532 31.5588 239.532 30.4716C239.532 29.2246 239.979 27.8976 240.875 26.4907L256.079 2.36555C256.622 1.5342 257.198 0.942657 257.806 0.590932C258.413 0.20723 259.117 0.0153796 259.916 0.0153796C261.547 0.0153796 262.57 0.798769 262.986 2.36555L269.556 26.4907C269.748 27.2581 269.844 27.9776 269.844 28.6491C269.844 30.2798 269.333 31.6227 268.309 32.6779C267.318 33.7011 265.959 34.2927 264.233 34.4525L261.834 25.6754H249.412L243.848 34.4525ZM260.635 19.6321L257.854 7.35366L257.134 7.64144L257.854 10.8549L252.578 19.6321H260.635ZM279.4 5.14738C279.688 3.51665 280.52 2.25363 281.894 1.35833C283.269 0.463031 285.076 0.0153796 287.314 0.0153796L282.134 29.3205C281.846 30.9513 281.015 32.2143 279.64 33.1096C278.265 34.0049 276.459 34.4525 274.22 34.4525L279.4 5.14738ZM291.241 34.0209C290.346 34.0209 289.61 33.7331 289.035 33.1575C288.459 32.55 288.172 31.8146 288.172 30.9513C288.172 30.6635 288.188 30.4397 288.219 30.2798L292.68 5.09942C293 3.37276 293.799 2.09376 295.078 1.26241C296.357 0.431056 298.196 0.0153796 300.594 0.0153796L295.702 27.9296H308.076C309.387 27.9296 310.378 28.2973 311.05 29.0328C311.753 29.7362 312.105 30.7594 312.105 32.1024C312.105 32.7738 312.041 33.4133 311.913 34.0209H291.241ZM318.556 34.4525C317.181 34.3246 316.11 33.909 315.342 33.2055C314.607 32.4701 314.239 31.5588 314.239 30.4716C314.239 29.2246 314.687 27.8976 315.582 26.4907L330.786 2.36555C331.33 1.5342 331.905 0.942657 332.513 0.590932C333.12 0.20723 333.824 0.0153796 334.623 0.0153796C336.254 0.0153796 337.277 0.798769 337.693 2.36555L344.264 26.4907C344.456 27.2581 344.552 27.9776 344.552 28.6491C344.552 30.2798 344.04 31.6227 343.017 32.6779C342.026 33.7011 340.667 34.2927 338.94 34.4525L336.542 25.6754H324.12L318.556 34.4525ZM335.343 19.6321L332.561 7.35366L331.841 7.64144L332.561 10.8549L327.285 19.6321H335.343ZM360.948 34.4525C356.759 34.4525 353.434 33.797 350.971 32.4861C348.541 31.1431 347.326 29.3365 347.326 27.0663C347.326 23.549 349.549 21.7904 353.993 21.7904C353.961 22.0462 353.945 22.4299 353.945 22.9415C353.945 24.892 354.585 26.3788 355.864 27.402C357.143 28.3933 358.997 28.8889 361.427 28.8889C363.698 28.8889 365.504 28.4572 366.847 27.5939C368.19 26.6986 368.862 25.5155 368.862 24.0447C368.862 23.4051 368.654 22.8616 368.238 22.4139C367.822 21.9343 367.103 21.5026 366.08 21.1189C365.088 20.7033 363.682 20.2716 361.859 19.8239C358.054 18.8967 355.256 17.7136 353.466 16.2747C351.707 14.8039 350.828 12.9653 350.828 10.759C350.828 8.5847 351.403 6.68218 352.554 5.05145C353.737 3.42073 355.416 2.1737 357.59 1.31037C359.797 0.447043 362.387 0.0153796 365.36 0.0153796C367.726 0.0153796 369.837 0.303155 371.691 0.878707C373.546 1.45426 374.985 2.26962 376.008 3.3248C377.063 4.348 377.591 5.51509 377.591 6.82607C377.591 9.95963 375.448 11.6063 371.164 11.7662C371.196 11.5104 371.212 11.1267 371.212 10.6151C371.212 8.85649 370.7 7.57749 369.677 6.77811C368.686 5.97873 367.087 5.57904 364.881 5.57904C362.674 5.57904 360.948 5.97873 359.701 6.77811C358.454 7.54551 357.83 8.63266 357.83 10.0396C357.83 10.9668 358.294 11.7342 359.221 12.3418C360.148 12.9173 361.811 13.4769 364.209 14.0205C368.206 14.9477 371.148 16.1628 373.034 17.6656C374.921 19.1685 375.864 21.055 375.864 23.3252C375.864 25.5954 375.257 27.5779 374.041 29.2726C372.858 30.9353 371.132 32.2143 368.862 33.1096C366.623 34.0049 363.985 34.4525 360.948 34.4525ZM383.359 5.09942C383.647 3.43671 384.462 2.1737 385.805 1.31037C387.148 0.447043 388.987 0.0153796 391.321 0.0153796L388.827 14.0684H402.257L403.839 5.09942C404.127 3.43671 404.943 2.1737 406.285 1.31037C407.66 0.447043 409.499 0.0153796 411.801 0.0153796L406.621 29.3685C406.333 31.0312 405.502 32.2942 404.127 33.1575C402.784 34.0209 400.962 34.4525 398.659 34.4525L401.201 20.1597H387.772L386.141 29.3685C385.853 31.0312 385.022 32.2942 383.647 33.1575C382.304 34.0209 380.482 34.4525 378.179 34.4525L383.359 5.09942Z" fill="#19004F"/>
<path d="M49.333 48.5051C49.4909 47.5895 49.9645 46.8317 50.7538 46.2318C51.5431 45.6319 52.4272 45.332 53.406 45.332H66.1932C68.0876 45.332 69.8083 45.7267 71.3554 46.516C72.9025 47.2738 74.1181 48.3315 75.0022 49.6891C75.8862 51.0152 76.3283 52.5149 76.3283 54.1883C76.3283 58.4192 75.1285 61.7186 72.7289 64.0866C70.3293 66.4546 66.9825 67.6386 62.6886 67.6386H52.9324L51.8431 73.8901C51.5589 75.5319 50.738 76.7791 49.3804 77.6316C48.0543 78.484 46.2546 78.9103 43.9813 78.9103L49.333 48.5051ZM63.3042 61.6239C65.3249 61.6239 66.8247 61.1029 67.8034 60.061C68.7822 58.9875 69.2716 57.3457 69.2716 55.1355C69.2716 53.9357 68.9085 53.0043 68.1823 52.3413C67.4877 51.6782 66.4774 51.3467 65.1513 51.3467H55.8213L53.9743 61.6239H63.3042ZM88.7407 78.9103C86.2779 78.9103 84.0994 78.484 82.205 77.6316C80.3421 76.7791 78.8898 75.6109 77.8478 74.1269C76.8375 72.643 76.3323 71.0011 76.3323 69.2015C76.3323 68.6647 76.3797 68.1122 76.4744 67.5439L78.4635 56.2722C78.874 53.9357 79.8528 51.915 81.3998 50.2101C82.9785 48.4735 84.9203 47.1632 87.2251 46.2792C89.5616 45.3636 92.0559 44.9058 94.708 44.9058C97.076 44.9058 99.1914 45.3478 101.054 46.2318C102.949 47.0843 104.433 48.2683 105.506 49.7838C106.58 51.2678 107.116 52.9096 107.116 54.7093C107.116 55.2145 107.069 55.7354 106.974 56.2722L104.985 67.5439C104.606 69.754 103.659 71.7273 102.144 73.4639C100.628 75.1688 98.7021 76.5107 96.3656 77.4895C94.0608 78.4367 91.5191 78.9103 88.7407 78.9103ZM89.7826 72.8482C91.9296 72.8482 93.7608 72.343 95.2763 71.3327C96.8234 70.3223 97.7391 69.012 98.0232 67.4018L99.965 56.4142C100.028 55.9722 100.06 55.6407 100.06 55.4197C100.06 54.0305 99.523 52.9412 98.4495 52.1518C97.376 51.3625 95.7815 50.9678 93.6661 50.9678C91.5191 50.9678 89.6721 51.473 88.125 52.4834C86.6095 53.4937 85.7096 54.804 85.4255 56.4142L83.4837 67.4018C83.4205 67.907 83.389 68.2543 83.389 68.4437C83.389 69.8329 83.9099 70.9222 84.9519 71.7115C86.0253 72.4693 87.6356 72.8482 89.7826 72.8482ZM110.899 78.484C110.015 78.484 109.289 78.1999 108.721 77.6316C108.152 77.0317 107.868 76.3055 107.868 75.453C107.868 75.1688 107.884 74.9478 107.916 74.79L112.32 49.9259C112.636 48.221 113.425 46.958 114.688 46.1371C115.951 45.3162 117.766 44.9058 120.134 44.9058L115.304 72.4693H127.523C128.817 72.4693 129.796 72.8324 130.459 73.5586C131.154 74.2532 131.501 75.2636 131.501 76.5896C131.501 77.2527 131.438 77.8841 131.311 78.484H110.899ZM140.113 66.644L132.11 45.6162C132.457 45.4267 132.962 45.2688 133.625 45.1426C134.32 44.9847 134.935 44.9058 135.472 44.9058C136.735 44.9058 137.745 45.1583 138.503 45.6635C139.261 46.1687 139.845 47.0054 140.255 48.1736L144.518 59.9189L142.576 62.8552L143.097 63.092L153.09 48.1736C154.542 45.995 156.547 44.9058 159.105 44.9058C159.673 44.9058 160.305 44.9847 160.999 45.1426C161.725 45.3004 162.215 45.4583 162.467 45.6162L147.075 66.6914L145.797 73.8901C145.512 75.5319 144.692 76.7791 143.334 77.6316C142.008 78.484 140.208 78.9103 137.935 78.9103L140.113 66.644ZM173.645 51.3467H162.184C162.91 47.3369 165.073 45.332 168.672 45.332H193.015C192.352 49.3418 190.189 51.3467 186.527 51.3467H180.607L176.629 73.8901C176.345 75.5319 175.524 76.7791 174.166 77.6316C172.84 78.484 171.04 78.9103 168.767 78.9103L173.645 51.3467ZM196.223 48.5051C196.381 47.6211 196.855 46.8791 197.644 46.2792C198.433 45.6477 199.317 45.332 200.296 45.332H221.466C221.119 47.3843 220.503 48.8998 219.619 49.8786C218.735 50.8258 217.519 51.2994 215.972 51.2994H202.664L201.385 58.7823H213.794C213.446 60.8345 212.831 62.35 211.947 63.3288C211.063 64.276 209.847 64.7496 208.3 64.7496H200.296L198.923 72.5167H213.225C214.425 72.5167 215.309 72.8166 215.878 73.4165C216.478 73.9848 216.777 74.9005 216.777 76.1634C216.777 76.7633 216.699 77.5368 216.541 78.484H194.424C193.539 78.484 192.813 78.2472 192.245 77.7736C191.708 77.2685 191.44 76.637 191.44 75.8792C191.44 75.6266 191.456 75.4372 191.487 75.3109L196.223 48.5051ZM232.403 78.9103C229.846 78.9103 227.604 78.4683 225.678 77.5842C223.784 76.7001 222.316 75.4688 221.274 73.8901C220.232 72.2799 219.711 70.417 219.711 68.3016C219.711 67.6386 219.79 66.8335 219.948 65.8863L221.368 57.835C222.063 53.8884 223.847 50.7468 226.72 48.4104C229.625 46.074 233.414 44.9058 238.087 44.9058C240.581 44.9058 242.791 45.2688 244.717 45.995C246.675 46.7212 248.19 47.7474 249.264 49.0734C250.369 50.3995 250.921 51.8993 250.921 53.5726C250.921 55.025 250.195 56.2248 248.743 57.172C247.29 58.0876 245.412 58.5455 243.107 58.5455C243.549 57.1562 243.77 56.0985 243.77 55.3723C243.77 54.0778 243.138 53.0201 241.875 52.1992C240.644 51.3783 239.034 50.9678 237.045 50.9678C234.834 50.9678 232.909 51.6151 231.267 52.9096C229.656 54.1725 228.678 55.8144 228.33 57.835L226.91 65.8863C226.846 66.1704 226.815 66.5967 226.815 67.165C226.815 68.8699 227.399 70.2434 228.567 71.2853C229.767 72.3272 231.393 72.8482 233.445 72.8482C235.15 72.8482 236.65 72.5482 237.944 71.9483C239.271 71.3169 240.297 70.4486 241.023 69.3435C241.781 68.2069 242.16 66.9282 242.16 65.5074V65.46C244.054 65.46 245.585 65.7442 246.753 66.3125C247.953 66.8808 248.553 67.607 248.553 68.4911C248.553 70.5118 247.859 72.3114 246.469 73.8901C245.112 75.4688 243.201 76.7001 240.739 77.5842C238.308 78.4683 235.529 78.9103 232.403 78.9103ZM256.204 49.9259C256.488 48.2841 257.293 47.037 258.619 46.1845C259.945 45.332 261.761 44.9058 264.066 44.9058L261.603 58.7823H274.864L276.427 49.9259C276.711 48.2841 277.516 47.037 278.842 46.1845C280.2 45.332 282.015 44.9058 284.289 44.9058L279.174 73.8901C278.889 75.5319 278.069 76.7791 276.711 77.6316C275.385 78.484 273.585 78.9103 271.312 78.9103L273.822 64.797H260.561L258.951 73.8901C258.667 75.5319 257.846 76.7791 256.488 77.6316C255.162 78.484 253.362 78.9103 251.089 78.9103L256.204 49.9259ZM288.531 50.3522C288.815 48.7103 289.62 47.4 290.946 46.4213C292.272 45.4109 293.898 44.9058 295.824 44.9058L306.717 68.9647L307.333 68.5384L305.817 64.9864L309.369 44.9058C313.41 44.9058 315.431 46.2476 315.431 48.9314C315.431 49.0892 315.4 49.4207 315.336 49.9259L311.027 74.3164C310.806 75.5161 310.079 76.5896 308.848 77.5368C307.617 78.4525 306.306 78.9103 304.917 78.9103L293.267 53.2885L292.698 53.7147L294.214 57.2667L291.277 73.8901C290.993 75.5319 290.188 76.7791 288.862 77.6316C287.536 78.484 285.752 78.9103 283.51 78.9103L288.531 50.3522ZM321.531 49.9733C321.815 48.363 322.636 47.1159 323.994 46.2318C325.352 45.3478 327.136 44.9058 329.346 44.9058L324.231 73.8428C323.947 75.453 323.126 76.7001 321.768 77.5842C320.41 78.4683 318.627 78.9103 316.416 78.9103L321.531 49.9733ZM343.311 78.9103C340.754 78.9103 338.512 78.4683 336.586 77.5842C334.691 76.7001 333.223 75.4688 332.181 73.8901C331.139 72.2799 330.618 70.417 330.618 68.3016C330.618 67.6386 330.697 66.8335 330.855 65.8863L332.276 57.835C332.971 53.8884 334.755 50.7468 337.628 48.4104C340.533 46.074 344.321 44.9058 348.994 44.9058C351.488 44.9058 353.699 45.2688 355.625 45.995C357.582 46.7212 359.098 47.7474 360.171 49.0734C361.276 50.3995 361.829 51.8993 361.829 53.5726C361.829 55.025 361.103 56.2248 359.65 57.172C358.198 58.0876 356.319 58.5455 354.014 58.5455C354.456 57.1562 354.677 56.0985 354.677 55.3723C354.677 54.0778 354.046 53.0201 352.783 52.1992C351.552 51.3783 349.941 50.9678 347.952 50.9678C345.742 50.9678 343.816 51.6151 342.174 52.9096C340.564 54.1725 339.585 55.8144 339.238 57.835L337.817 65.8863C337.754 66.1704 337.722 66.5967 337.722 67.165C337.722 68.8699 338.307 70.2434 339.475 71.2853C340.675 72.3272 342.301 72.8482 344.353 72.8482C346.058 72.8482 347.558 72.5482 348.852 71.9483C350.178 71.3169 351.204 70.4486 351.931 69.3435C352.688 68.2069 353.067 66.9282 353.067 65.5074V65.46C354.962 65.46 356.493 65.7442 357.661 66.3125C358.861 66.8808 359.461 67.607 359.461 68.4911C359.461 70.5118 358.766 72.3114 357.377 73.8901C356.019 75.4688 354.109 76.7001 351.646 77.5842C349.215 78.4683 346.437 78.9103 343.311 78.9103Z" fill="#19004F"/>
</svg>
